<?xml version="1.0" encoding="UTF-8"?>
<svg xmlns="http://www.w3.org/2000/svg" width="36" height="28" viewBox="0 0 36 28" fill="none">
  <path d="M18.2999 7.94001C16.8319 7.94001 15.3969 8.37544 14.1765 9.1912C12.9561 10.007 12.005 11.1664 11.4437 12.5228C10.8824 13.8792 10.7361 15.3716 11.0232 16.8113C11.3103 18.2509 12.018 19.573 13.0567 20.6103C14.0954 21.6476 15.4185 22.3535 16.8584 22.6387C18.2984 22.9238 19.7907 22.7755 21.1463 22.2123C22.502 21.6492 23.6601 20.6966 24.4742 19.4751C25.2884 18.2535 25.7219 16.818 25.7199 15.35C25.7199 14.3761 25.5279 13.4117 25.1549 12.512C24.7819 11.6123 24.2351 10.795 23.546 10.1068C22.8569 9.4186 22.0388 8.87299 21.1386 8.50119C20.2385 8.12939 19.2738 7.93869 18.2999 7.94001Z" fill="#FA4050"></path>
  <path d="M34.7596 4.33998C34.4036 3.96706 33.9752 3.67089 33.5005 3.46968C33.0259 3.26848 32.5151 3.16649 31.9996 3.16998H26.4196V3.09998C26.4233 2.69394 26.3446 2.29136 26.1882 1.91664C26.0318 1.54192 25.8009 1.20285 25.5096 0.919982C25.225 0.634413 24.8868 0.407893 24.5144 0.253442C24.142 0.0989901 23.7427 0.0196513 23.3396 0.0199822H13.2896C12.8821 0.016024 12.4779 0.0926951 12.1002 0.245583C11.7225 0.398472 11.3787 0.624557 11.0888 0.910825C10.7988 1.19709 10.5683 1.53789 10.4105 1.9136C10.2528 2.28931 10.1709 2.6925 10.1696 3.09998V3.16998H4.64959C4.13054 3.16254 3.61558 3.26265 3.13713 3.46401C2.65868 3.66537 2.2271 3.96363 1.86959 4.33998C1.1281 5.07686 0.704545 6.07473 0.689586 7.11998V23.8C0.68523 24.3195 0.787729 24.8344 0.990721 25.3126C1.19371 25.7908 1.49286 26.2222 1.86959 26.58C2.60808 27.3178 3.60575 27.7377 4.64959 27.75H31.9996C32.5185 27.7562 33.0331 27.6556 33.5113 27.4543C33.9896 27.253 34.4213 26.9554 34.7796 26.58C35.5174 25.8415 35.9373 24.8438 35.9496 23.8V7.11998C35.9545 6.59947 35.8512 6.08361 35.6464 5.60508C35.4415 5.12654 35.1396 4.69575 34.7596 4.33998ZM34.1896 23.8C34.1909 24.0884 34.1352 24.3743 34.0258 24.6411C33.9163 24.908 33.7552 25.1506 33.5517 25.355C33.3482 25.5594 33.1063 25.7216 32.84 25.8323C32.5736 25.943 32.288 26 31.9996 26H4.64959C4.36177 26.0009 4.07662 25.9448 3.81058 25.835C3.54455 25.7251 3.30291 25.5637 3.09959 25.36C2.89753 25.158 2.73774 24.9178 2.62957 24.6534C2.5214 24.389 2.46701 24.1057 2.46959 23.82V7.11998C2.46701 6.83431 2.5214 6.55098 2.62957 6.28657C2.73774 6.02215 2.89753 5.78194 3.09959 5.57998C3.30291 5.37627 3.54455 5.21483 3.81058 5.10498C4.07662 4.99514 4.36177 4.93906 4.64959 4.93998H11.1096C11.2304 4.93876 11.3497 4.91324 11.4604 4.86493C11.5711 4.81662 11.671 4.74652 11.754 4.6588C11.8371 4.57109 11.9016 4.46755 11.9438 4.35437C11.986 4.24118 12.005 4.12066 11.9996 3.99998V2.99998C11.9945 2.65018 12.1274 2.31246 12.3696 2.05998C12.494 1.93916 12.6411 1.84424 12.8025 1.78073C12.9638 1.71721 13.1362 1.68637 13.3096 1.68998H23.3096C23.4823 1.68581 23.654 1.71693 23.8143 1.78141C23.9746 1.8459 24.12 1.94241 24.2417 2.06503C24.3634 2.18766 24.4588 2.33382 24.522 2.49458C24.5853 2.65534 24.6151 2.82731 24.6096 2.99998V3.99998C24.6096 4.11902 24.6332 4.23687 24.679 4.34672C24.7249 4.45657 24.7921 4.55623 24.8767 4.63994C24.9613 4.72364 25.0617 4.78973 25.1721 4.83436C25.2824 4.879 25.4006 4.9013 25.5196 4.89998H31.9996C32.5769 4.90261 33.1299 5.13314 33.5382 5.5414C33.9464 5.94966 34.177 6.50262 34.1796 7.07998L34.1896 23.8Z" fill="#070B22"></path>
  <path d="M18.3103 7.21998C16.9557 7.22111 15.6223 7.55617 14.4281 8.1955C13.2339 8.83483 12.2157 9.75871 11.4636 10.8854C10.7116 12.012 10.249 13.3067 10.1166 14.6548C9.98422 16.0029 10.1862 17.3628 10.7048 18.6142C11.2233 19.8656 12.0423 20.9699 13.0894 21.8293C14.1364 22.6887 15.3792 23.2767 16.7077 23.5413C18.0362 23.8058 19.4094 23.7388 20.7058 23.3461C22.0023 22.9535 23.1819 22.2472 24.1403 21.29C24.9083 20.5264 25.5169 19.6178 25.9307 18.617C26.3444 17.6161 26.555 16.543 26.5503 15.46C26.5516 14.3775 26.3393 13.3054 25.9257 12.3051C25.5121 11.3048 24.9052 10.3959 24.1398 9.63048C23.3743 8.86507 22.4654 8.25816 21.4651 7.84453C20.4648 7.4309 19.3927 7.21866 18.3103 7.21998ZM22.8703 20.05C21.6573 21.2487 20.0207 21.921 18.3153 21.921C16.6099 21.921 14.9732 21.2487 13.7603 20.05C13.1595 19.453 12.6838 18.7423 12.361 17.9593C12.0382 17.1764 11.8748 16.3369 11.8803 15.49C11.8904 13.7863 12.5649 12.1539 13.7603 10.94C14.356 10.3404 15.0651 9.86542 15.8463 9.54265C16.6275 9.21989 17.4651 9.05581 18.3103 9.05998C20.017 9.0696 21.6527 9.74398 22.8703 10.94C23.4667 11.5376 23.9389 12.2472 24.2599 13.0281C24.5808 13.809 24.7441 14.6457 24.7403 15.49C24.7539 16.3371 24.5952 17.1782 24.2737 17.9621C23.9523 18.746 23.4748 19.4563 22.8703 20.05Z" fill="#070B22"></path>
  <path d="M30.2396 7.19C30.564 7.19 30.881 7.28619 31.1507 7.46639C31.4204 7.6466 31.6306 7.90273 31.7548 8.2024C31.8789 8.50207 31.9114 8.83182 31.8481 9.14995C31.7848 9.46808 31.6286 9.7603 31.3993 9.98966C31.1699 10.219 30.8777 10.3752 30.5596 10.4385C30.2414 10.5018 29.9117 10.4693 29.612 10.3452C29.3123 10.221 29.0562 10.0108 28.876 9.74114C28.6958 9.47144 28.5996 9.15436 28.5996 8.83C28.5996 8.39505 28.7724 7.97791 29.08 7.67035C29.3875 7.36279 29.8047 7.19 30.2396 7.19Z" fill="#070B22"></path>
</svg>
