<?xml version="1.0" encoding="UTF-8"?>
<svg xmlns="http://www.w3.org/2000/svg" width="66" height="66" viewBox="0 0 66 66" fill="none">
  <path d="M48.6832 40.1167C46.975 40.1134 45.3042 40.6169 43.8822 41.5636C42.4603 42.5102 41.3512 43.8574 40.6952 45.4347C40.0392 47.0119 39.8658 48.7483 40.1971 50.4241C40.5283 52.0999 41.3492 53.6398 42.556 54.8488C43.7627 56.0579 45.301 56.8818 46.9761 57.2163C48.6513 57.5507 50.388 57.3807 51.9665 56.7278C53.545 56.0749 54.8943 54.9683 55.8437 53.5482C56.7931 52.1281 57.2999 50.4583 57.2999 48.75C57.2999 46.4632 56.3926 44.2698 54.7771 42.6512C53.1617 41.0327 50.97 40.1211 48.6832 40.1167Z" fill="#FA4050"></path>
  <path d="M59.2005 35.6667V15.0667C60.6002 14.8777 61.9159 14.2894 62.99 13.3722C64.0641 12.455 64.8512 11.2477 65.2571 9.89483C65.663 8.54195 65.6704 7.10078 65.2786 5.74376C64.8868 4.38675 64.1123 3.17137 63.0477 2.24308C61.9831 1.31478 60.6736 0.712883 59.2759 0.509409C57.8782 0.305935 56.4515 0.509502 55.1664 1.09575C53.8814 1.682 52.7925 2.62611 52.03 3.81508C51.2675 5.00406 50.8638 6.38755 50.8671 7.8H0.383789V49.8167H31.9505C32.1263 52.6041 32.9951 55.3037 34.478 57.6705C35.9609 60.0374 38.011 61.9968 40.4426 63.371C42.8741 64.7453 45.6102 65.491 48.4028 65.5405C51.1953 65.5901 53.9561 64.9419 56.4349 63.6548C58.9137 62.3676 61.032 60.4822 62.5979 58.1694C64.1639 55.8567 65.1278 53.1897 65.4025 50.4102C65.6771 47.6307 65.2538 44.8266 64.1708 42.2521C63.0878 39.6776 61.3794 37.414 59.2005 35.6667ZM58.1505 2.55C59.1888 2.55 60.2038 2.85791 61.0672 3.43478C61.9306 4.01166 62.6035 4.8316 63.0008 5.79091C63.3982 6.75022 63.5021 7.80582 63.2996 8.82422C63.097 9.84262 62.597 10.7781 61.8628 11.5123C61.1285 12.2465 60.1931 12.7465 59.1747 12.9491C58.1563 13.1517 57.1007 13.0477 56.1414 12.6504C55.1821 12.253 54.3621 11.5801 53.7852 10.7167C53.2084 9.85338 52.9005 8.83835 52.9005 7.8C52.9048 6.40896 53.4594 5.07616 54.443 4.09254C55.4266 3.10893 56.7594 2.55439 58.1505 2.55ZM2.48379 9.91667H51.1171C51.3669 10.7412 51.762 11.5144 52.2838 12.2L45.8505 18.6667C45.431 18.4582 44.9689 18.3497 44.5005 18.3497C44.032 18.3497 43.5699 18.4582 43.1505 18.6667L41.0338 16.55C41.2391 16.1182 41.3418 15.6447 41.3338 15.1667C41.3338 14.3312 41.0019 13.53 40.4112 12.9393C39.8204 12.3485 39.0192 12.0167 38.1838 12.0167C37.3484 12.0167 36.5471 12.3485 35.9564 12.9393C35.3657 13.53 35.0338 14.3312 35.0338 15.1667C35.0361 15.6348 35.1443 16.0963 35.3505 16.5167L30.0838 21.7833C29.6635 21.5772 29.2019 21.4689 28.7338 21.4667C28.1108 21.4667 27.5018 21.6514 26.9837 21.9975C26.4657 22.3437 26.062 22.8356 25.8236 23.4112C25.5851 23.9868 25.5228 24.6202 25.6443 25.2312C25.7659 25.8422 26.0659 26.4035 26.5064 26.8441C26.9469 27.2846 27.5082 27.5846 28.1193 27.7061C28.7303 27.8277 29.3637 27.7653 29.9392 27.5269C30.5148 27.2885 31.0068 26.8847 31.3529 26.3667C31.699 25.8487 31.8838 25.2397 31.8838 24.6167C31.8839 24.1483 31.7755 23.6862 31.5671 23.2667L36.8338 18C37.2533 18.2085 37.7154 18.317 38.1838 18.317C38.6522 18.317 39.1143 18.2085 39.5338 18L41.6505 20.1167C41.4421 20.5362 41.3337 20.9983 41.3338 21.4667C41.3338 22.3021 41.6657 23.1033 42.2564 23.694C42.8471 24.2848 43.6484 24.6167 44.4838 24.6167C45.3192 24.6167 46.1204 24.2848 46.7112 23.694C47.3019 23.1033 47.6338 22.3021 47.6338 21.4667C47.6339 20.9983 47.5255 20.5362 47.3171 20.1167L53.7671 13.6667C54.7407 14.4099 55.8882 14.8918 57.1005 15.0667V34.2333C53.7469 32.27 49.8127 31.5403 45.9781 32.1702C42.1435 32.8002 38.6496 34.7503 36.1005 37.6833V33.0167H29.8005V45.6167H32.2005C32.0893 46.2944 32.006 46.9944 31.9505 47.7167H2.48379V9.91667ZM44.5005 20.4167C44.6383 20.4167 44.7749 20.4438 44.9023 20.4966C45.0297 20.5494 45.1454 20.6267 45.2429 20.7242C45.3404 20.8217 45.4178 20.9375 45.4705 21.0648C45.5233 21.1922 45.5505 21.3288 45.5505 21.4667C45.5505 21.7451 45.4398 22.0122 45.2429 22.2091C45.046 22.406 44.7789 22.5167 44.5005 22.5167C44.222 22.5167 43.9549 22.406 43.758 22.2091C43.5611 22.0122 43.4505 21.7451 43.4505 21.4667C43.4505 21.1882 43.5611 20.9211 43.758 20.7242C43.9549 20.5273 44.222 20.4167 44.5005 20.4167ZM37.1505 15.1667C37.1505 14.8882 37.2611 14.6211 37.458 14.4242C37.6549 14.2273 37.922 14.1167 38.2005 14.1167C38.4789 14.1167 38.746 14.2273 38.9429 14.4242C39.1398 14.6211 39.2505 14.8882 39.2505 15.1667C39.2505 15.3046 39.2233 15.4411 39.1705 15.5685C39.1178 15.6959 39.0404 15.8116 38.9429 15.9091C38.8454 16.0066 38.7297 16.084 38.6023 16.1367C38.4749 16.1895 38.3383 16.2167 38.2005 16.2167C38.0626 16.2167 37.926 16.1895 37.7986 16.1367C37.6712 16.084 37.5555 16.0066 37.458 15.9091C37.3605 15.8116 37.2831 15.6959 37.2304 15.5685C37.1776 15.4411 37.1505 15.3046 37.1505 15.1667ZM29.8005 24.6167C29.8005 24.8243 29.7389 25.0273 29.6235 25.2C29.5081 25.3727 29.3441 25.5073 29.1523 25.5867C28.9604 25.6662 28.7493 25.687 28.5456 25.6465C28.3419 25.606 28.1548 25.506 28.008 25.3591C27.8612 25.2123 27.7611 25.0252 27.7206 24.8215C27.6801 24.6178 27.7009 24.4067 27.7804 24.2149C27.8598 24.023 27.9944 23.859 28.1671 23.7436C28.3398 23.6282 28.5428 23.5667 28.7505 23.5667C29.0289 23.5667 29.296 23.6773 29.4929 23.8742C29.6898 24.0711 29.8005 24.3382 29.8005 24.6167ZM48.7005 57.1667C47.0523 57.1667 45.4411 56.6779 44.0707 55.7622C42.7003 54.8466 41.6322 53.5451 41.0015 52.0224C40.3707 50.4996 40.2057 48.8241 40.5272 47.2076C40.8488 45.5911 41.6425 44.1062 42.8079 42.9408C43.9733 41.7753 45.4582 40.9817 47.0747 40.6601C48.6912 40.3386 50.3668 40.5036 51.8895 41.1343C53.4122 41.7651 54.7137 42.8332 55.6294 44.2036C56.545 45.574 57.0338 47.1852 57.0338 48.8333C57.0338 51.0435 56.1558 53.1631 54.593 54.7259C53.0302 56.2887 50.9106 57.1667 48.7005 57.1667ZM34.0005 40.65C33.4963 41.565 33.0779 42.5246 32.7505 43.5167H31.9005V35.1833H34.0005V40.65ZM47.6505 34.1167V38.3167C45.0615 38.5806 42.6623 39.7951 40.9169 41.7253C39.1714 43.6555 38.2035 46.1643 38.2005 48.7667C38.1989 50.2558 38.5172 51.7279 39.1338 53.0833L35.5005 55.1833C34.5158 53.1875 34.0026 50.9922 34.0005 48.7667C34.0075 45.053 35.4183 41.4794 37.9498 38.7623C40.4814 36.0453 43.9466 34.3858 47.6505 34.1167ZM48.7005 63.4667C46.299 63.4619 43.9351 62.8703 41.8146 61.7432C39.6941 60.6161 37.8812 58.9878 36.5338 57L40.1838 54.8833C41.1544 56.2357 42.4332 57.3374 43.9142 58.0974C45.3951 58.8574 47.0358 59.2538 48.7005 59.2538C50.3651 59.2538 52.0058 58.8574 53.4868 58.0974C54.9678 57.3374 56.2465 56.2357 57.2171 54.8833L60.8671 57C59.5228 58.9909 57.7106 60.6216 55.5894 61.749C53.4682 62.8765 51.1027 63.4663 48.7005 63.4667ZM61.9171 55.1333L58.2671 53.0333C58.8837 51.6779 59.202 50.2058 59.2005 48.7167C59.1974 46.1143 58.2295 43.6055 56.484 41.6753C54.7386 39.7451 52.3394 38.5306 49.7505 38.2667V34.1167C53.4543 34.3858 56.9195 36.0453 59.4511 38.7623C61.9826 41.4794 63.3934 45.053 63.4005 48.7667C63.4035 50.9909 62.8961 53.1861 61.9171 55.1833V55.1333Z" fill="#070B22"></path>
  <path d="M48.7004 42.4667C47.4544 42.4667 46.2363 42.8362 45.2003 43.5284C44.1643 44.2207 43.3568 45.2046 42.88 46.3558C42.4031 47.5069 42.2784 48.7737 42.5214 49.9957C42.7645 51.2178 43.3645 52.3404 44.2456 53.2214C45.1267 54.1025 46.2492 54.7025 47.4713 54.9456C48.6934 55.1887 49.9601 55.0639 51.1113 54.5871C52.2625 54.1103 53.2464 53.3028 53.9386 52.2668C54.6309 51.2307 55.0004 50.0127 55.0004 48.7667C54.996 47.0972 54.3308 45.4973 53.1503 44.3168C51.9698 43.1362 50.3699 42.4711 48.7004 42.4667ZM48.7004 52.9667C47.8697 52.9667 47.0577 52.7203 46.367 52.2588C45.6763 51.7973 45.138 51.1414 44.8201 50.3739C44.5022 49.6065 44.419 48.762 44.5811 47.9473C44.7432 47.1326 45.1432 46.3842 45.7305 45.7968C46.3179 45.2094 47.0663 44.8094 47.881 44.6474C48.6957 44.4853 49.5402 44.5685 50.3077 44.8864C51.0751 45.2043 51.7311 45.7426 52.1926 46.4333C52.6541 47.124 52.9004 47.936 52.9004 48.7667C52.9004 49.8806 52.4579 50.9489 51.6702 51.7365C50.8826 52.5242 49.8143 52.9667 48.7004 52.9667Z" fill="#070B22"></path>
  <path d="M6.68301 12.0166H4.58301V14.1166H6.68301V12.0166Z" fill="#070B22"></path>
  <path d="M23.4998 12.0166H8.7998V14.1166H23.4998V12.0166Z" fill="#070B22"></path>
  <path d="M6.68301 16.2167H4.58301V18.3167H6.68301V16.2167Z" fill="#070B22"></path>
  <path d="M23.4998 16.2167H8.7998V18.3167H23.4998V16.2167Z" fill="#070B22"></path>
  <path d="M6.68301 20.4167H4.58301V22.5168H6.68301V20.4167Z" fill="#070B22"></path>
  <path d="M23.4998 20.4167H8.7998V22.5168H23.4998V20.4167Z" fill="#070B22"></path>
  <path d="M6.68301 24.6167H4.58301V26.7167H6.68301V24.6167Z" fill="#070B22"></path>
  <path d="M23.4998 24.6167H8.7998V26.7167H23.4998V24.6167Z" fill="#070B22"></path>
  <path d="M4.66699 45.6167H10.9837V35.1167H4.66699V45.6167ZM6.78366 37.2834H8.88366V43.5834H6.70032L6.78366 37.2834Z" fill="#070B22"></path>
  <path d="M13 45.6167H19.3V37.2833H13V45.6167ZM15.1 39.3167H17.2V43.5167H15.1V39.3167Z" fill="#070B22"></path>
  <path d="M21.333 45.6167H27.633V28.8167H21.333V45.6167ZM23.433 30.9166H25.533V43.5167H23.4997L23.433 30.9166Z" fill="#070B22"></path>
</svg>
