<?xml version="1.0" encoding="UTF-8"?>
<svg xmlns="http://www.w3.org/2000/svg" width="52" height="78" viewBox="0 0 52 78" fill="none">
  <path d="M25.5073 9.38464C22.1426 9.38466 18.8536 10.383 16.0566 12.2534C13.2597 14.1238 11.0806 16.782 9.79527 19.8915C8.50993 23.001 8.17616 26.422 8.8362 29.7213C9.49624 33.0206 11.1204 36.0499 13.5031 38.4256C15.8858 40.8014 18.9198 42.4167 22.221 43.0671C25.5223 43.7175 28.9422 43.3737 32.048 42.0793C35.1537 40.7849 37.8056 38.598 39.6677 35.7956C41.5299 32.9932 42.5187 29.7012 42.5089 26.3366C42.4957 21.8361 40.6987 17.5244 37.5117 14.3467C34.3247 11.169 30.0078 9.38462 25.5073 9.38464Z" fill="#FA4050"></path>
  <path d="M49.8024 25.5096H48.562C48.5465 30.7747 46.7059 35.8715 43.3537 39.9316C40.0015 43.9916 35.3452 46.7637 30.1783 47.7755C25.0113 48.7873 19.6534 47.9761 15.0174 45.4802C10.3815 42.9844 6.75446 38.9582 4.7543 34.0878C2.75415 29.2175 2.50466 23.8042 4.04836 18.7705C5.59206 13.7368 8.83342 9.39409 13.2201 6.48238C17.6068 3.57068 22.8674 2.27013 28.1056 2.80235C33.3437 3.33457 38.2352 5.66663 41.9466 9.40115C44.0579 11.5166 45.7295 14.0292 46.8649 16.7939C48.0003 19.5587 48.5771 22.5209 48.562 25.5096H51.0428C51.046 20.5174 49.5687 15.6363 46.7975 11.4838C44.0263 7.33131 40.0859 4.09396 35.4746 2.18124C30.8633 0.268521 25.7883 -0.233631 20.8916 0.738303C15.9949 1.71024 11.4964 4.11259 7.96519 7.64148C4.43398 11.1704 2.02868 15.6673 1.05354 20.5634C0.0783976 25.4594 0.577221 30.5347 2.48692 35.1473C4.39661 39.7598 7.63138 43.7024 11.7821 46.4763C15.9327 49.2502 20.8128 50.7308 25.8051 50.7308C32.4943 50.7264 38.9086 48.0683 43.6401 43.3398C48.3717 38.6114 51.034 32.1989 51.0428 25.5096H49.8024Z" fill="#070B22"></path>
  <path d="M42.8894 25.2617H41.649C41.6458 28.9117 40.3771 32.4478 38.0591 35.2674C35.7411 38.087 32.5173 40.0156 28.9367 40.7248C25.3562 41.434 21.6406 40.8798 18.4228 39.1566C15.2051 37.4335 12.6844 34.648 11.2901 31.2747C9.89577 27.9014 9.7142 24.149 10.7763 20.6569C11.8383 17.1647 14.0784 14.1489 17.1147 12.1231C20.151 10.0973 23.7958 9.18691 27.428 9.54706C31.0603 9.9072 34.4553 11.5156 37.0347 14.0982C38.5009 15.5636 39.6632 17.3041 40.455 19.2198C41.2469 21.1355 41.6526 23.1887 41.649 25.2617H44.1297C44.1297 21.6636 43.0628 18.1463 41.0638 15.1545C39.0648 12.1628 36.2235 9.83108 32.8993 8.45415C29.5751 7.07722 25.9173 6.71695 22.3883 7.4189C18.8593 8.12086 15.6178 9.85351 13.0735 12.3977C10.5293 14.942 8.79664 18.1835 8.09469 21.7125C7.39273 25.2415 7.753 28.8993 9.12993 32.2236C10.5069 35.5478 12.8386 38.389 15.8303 40.388C18.822 42.387 22.3393 43.454 25.9374 43.454C28.3265 43.454 30.6921 42.9834 32.8993 42.0692C35.1065 41.1549 37.112 39.8149 38.8013 38.1256C40.4907 36.4362 41.8307 34.4307 42.7449 32.2236C43.6592 30.0164 44.1297 27.6507 44.1297 25.2617H42.8894Z" fill="#070B22"></path>
  <path d="M25.0938 49.6392V73.19L21.2073 69.2869C20.9972 69.0818 20.7153 68.967 20.4217 68.967C20.1281 68.967 19.8462 69.0818 19.6361 69.2869C19.5196 69.3909 19.4263 69.5183 19.3625 69.6608C19.2986 69.8033 19.2656 69.9577 19.2656 70.1138C19.2656 70.27 19.2986 70.4244 19.3625 70.5669C19.4263 70.7094 19.5196 70.8368 19.6361 70.9408L25.4246 76.7623C25.6346 76.9674 25.9166 77.0822 26.2102 77.0822C26.5037 77.0822 26.7857 76.9674 26.9957 76.7623L32.7677 70.9408C32.8762 70.8376 32.9635 70.714 33.0243 70.5772C33.0851 70.4403 33.1184 70.2928 33.1223 70.1431C33.1261 69.9933 33.1004 69.8443 33.0467 69.7045C32.9929 69.5647 32.9122 69.4368 32.809 69.3283C32.7058 69.2197 32.5823 69.1325 32.4454 69.0716C32.3086 69.0108 32.161 68.9775 32.0113 68.9736C31.8616 68.9698 31.7125 68.9955 31.5727 69.0492C31.4329 69.103 31.3051 69.1837 31.1965 69.2869L27.31 73.19V49.6392C27.31 49.3453 27.1932 49.0635 26.9854 48.8557C26.7776 48.6479 26.4958 48.5311 26.2019 48.5311C25.908 48.5311 25.6262 48.6479 25.4184 48.8557C25.2105 49.0635 25.0938 49.3453 25.0938 49.6392Z" fill="#070B22"></path>
  <path d="M27.8731 31.6123C28.4518 31.6104 29.0206 31.4625 29.527 31.1823C30.0424 30.8925 30.4707 30.4699 30.7674 29.9585C31.0936 29.3658 31.2643 28.7 31.2635 28.0235L31.1643 27.7588L30.8997 27.5769H29.5104L29.2789 27.6596L29.1631 27.8746C29.0639 28.2614 28.8642 28.6152 28.5843 28.9C28.4427 29.0307 28.2755 29.1306 28.0933 29.1932C27.9111 29.2559 27.7178 29.2799 27.5258 29.2638C27.2414 29.2696 26.9592 29.2132 26.6989 29.0984C26.3944 28.9495 26.1014 28.7782 25.8224 28.5858C25.5341 28.3989 25.236 28.2278 24.9293 28.0731C24.656 27.9426 24.3669 27.8481 24.0693 27.7919C24.0693 27.3123 24.0693 26.6177 23.9039 25.6915H27.2116L27.5589 25.5592L27.6912 25.2119V24.1038L27.5589 23.7731L27.2116 23.6242H23.7385C23.7144 23.2332 23.7144 22.841 23.7385 22.45C23.7044 21.7138 23.901 20.9853 24.3008 20.3661C24.4929 20.1134 24.7443 19.9118 25.0327 19.7791C25.3211 19.6464 25.6377 19.5868 25.9547 19.6054C27.2116 19.6054 27.9889 20.3331 28.3031 21.7884C28.3306 21.9241 28.4058 22.0453 28.515 22.1303C28.6243 22.2152 28.7603 22.2582 28.8985 22.2515H30.8004L31.0981 22.1358L31.2139 21.8381C31.1997 21.0038 30.9658 20.1881 30.5358 19.4731C30.1071 18.7533 29.4738 18.1776 28.7166 17.8192C27.8523 17.4177 26.9074 17.2197 25.9547 17.2404C25.2586 17.1914 24.56 17.2899 23.9045 17.5292C23.2491 17.7686 22.6515 18.1436 22.1508 18.6296C21.6942 19.1376 21.3423 19.7307 21.1153 20.3749C20.8883 21.0191 20.7905 21.7018 20.8277 22.3838C20.8277 22.8304 20.8277 23.2273 20.8277 23.5746H19.7197L19.3723 23.7069L19.24 24.0542V25.1623L19.3723 25.5096L19.7197 25.6419H21.2247C21.2247 25.7411 21.2247 26.0223 21.357 26.4688C21.4893 26.9154 21.4727 27.3288 21.4893 27.7092C20.8235 27.8981 20.2408 28.306 19.8354 28.8669C19.419 29.4947 19.1948 30.2305 19.1904 30.9838L19.3062 31.2485L19.5708 31.3642H21.0923L21.357 31.265L21.4727 31.0335C21.5428 30.6811 21.7088 30.3549 21.9524 30.0908C22.0804 29.9779 22.2298 29.8919 22.3918 29.8379C22.5537 29.7839 22.7249 29.7631 22.895 29.7765C23.1956 29.7693 23.4943 29.8256 23.7716 29.9419C24.1408 30.1077 24.4998 30.2955 24.8466 30.5042C25.3127 30.783 25.7992 31.0263 26.302 31.2319C26.7911 31.4733 27.3277 31.6033 27.8731 31.6123Z" fill="#070B22"></path>
</svg>
