<svg xmlns="http://www.w3.org/2000/svg" width="484px" height="472px" viewBox="0 0 484 472" fill="none" transform="rotate(0) scale(1, 1)">
  <ellipse cx="236.5" cy="294" rx="157.5" ry="31" fill="#f3f5f6"/>
  <path d="M198.292 273.169C197.074 273.169 195.885 273.53 194.873 274.206C193.861 274.883 193.072 275.844 192.606 276.968C192.14 278.093 192.018 279.33 192.256 280.524C192.493 281.717 193.079 282.814 193.94 283.675C194.801 284.535 195.897 285.121 197.091 285.359C198.285 285.596 199.522 285.474 200.647 285.009C201.771 284.543 202.732 283.754 203.408 282.742C204.084 281.73 204.445 280.54 204.445 279.323C204.445 277.691 203.797 276.126 202.643 274.972C201.489 273.818 199.924 273.169 198.292 273.169ZM198.292 281.446C197.742 281.438 197.218 281.214 196.832 280.823C196.446 280.431 196.23 279.904 196.23 279.354C196.23 278.807 196.447 278.283 196.834 277.896C197.22 277.51 197.745 277.292 198.292 277.292C198.838 277.292 199.363 277.51 199.749 277.896C200.136 278.283 200.353 278.807 200.353 279.354C200.353 279.904 200.137 280.431 199.751 280.823C199.365 281.214 198.841 281.438 198.292 281.446Z" fill="#070b22"/>
  <path d="M276.908 273.169C275.691 273.169 274.501 273.53 273.489 274.206C272.477 274.883 271.688 275.844 271.222 276.968C270.757 278.093 270.635 279.33 270.872 280.524C271.11 281.717 271.696 282.814 272.556 283.675C273.417 284.535 274.513 285.121 275.707 285.359C276.901 285.596 278.138 285.474 279.263 285.009C280.387 284.543 281.348 283.754 282.024 282.742C282.701 281.73 283.062 280.54 283.062 279.323C283.062 277.691 282.413 276.126 281.259 274.972C280.105 273.818 278.54 273.169 276.908 273.169ZM276.908 281.446C276.358 281.438 275.834 281.214 275.448 280.823C275.062 280.431 274.846 279.904 274.846 279.354C274.846 278.807 275.063 278.283 275.45 277.896C275.837 277.51 276.361 277.292 276.908 277.292C277.455 277.292 277.979 277.51 278.365 277.896C278.752 278.283 278.969 278.807 278.969 279.354C278.969 279.904 278.753 280.431 278.367 280.823C277.982 281.214 277.457 281.438 276.908 281.446Z" fill="#070b22"/>
  <path d="M301.4 245.138L282.939 216.185C282.751 215.883 282.487 215.637 282.174 215.47C281.861 215.302 281.509 215.22 281.154 215.231H256.231V203.846C256.183 201.952 255.397 200.153 254.04 198.83C252.683 197.508 250.864 196.769 248.97 196.769H180.693C178.801 196.769 176.985 197.509 175.633 198.832C174.282 200.155 173.502 201.955 173.462 203.846V279.354C173.462 279.903 173.678 280.431 174.064 280.823C174.45 281.214 174.974 281.438 175.523 281.446H183.954C184.46 284.888 186.186 288.033 188.819 290.307C191.451 292.581 194.814 293.832 198.293 293.832C201.771 293.832 205.134 292.581 207.766 290.307C210.399 288.033 212.126 284.888 212.631 281.446H262.693C263.198 284.888 264.925 288.033 267.557 290.307C270.19 292.581 273.552 293.832 277.031 293.832C280.51 293.832 283.872 292.581 286.505 290.307C289.137 288.033 290.864 284.888 291.37 281.446H299.616C300.165 281.438 300.69 281.214 301.075 280.823C301.461 280.431 301.677 279.903 301.677 279.354V246.277C301.673 245.873 301.556 245.479 301.339 245.138H301.4ZM198.293 289.723C196.241 289.729 194.233 289.126 192.523 287.991C190.814 286.855 189.48 285.238 188.691 283.343C187.901 281.449 187.692 279.363 188.088 277.35C188.485 275.336 189.47 273.486 190.919 272.033C192.368 270.579 194.215 269.589 196.228 269.186C198.24 268.784 200.326 268.987 202.223 269.771C204.119 270.555 205.741 271.884 206.881 273.59C208.022 275.296 208.631 277.302 208.631 279.354C208.635 280.714 208.371 282.062 207.853 283.32C207.335 284.578 206.574 285.721 205.614 286.684C204.654 287.647 203.512 288.412 202.256 288.933C201 289.455 199.653 289.723 198.293 289.723ZM252.077 252.462H177.616V203.846C177.616 203.03 177.94 202.247 178.517 201.67C179.094 201.093 179.877 200.769 180.693 200.769H248.97C249.786 200.769 250.568 201.093 251.145 201.67C251.722 202.247 252.047 203.03 252.047 203.846V252.462H252.077ZM266.539 225.569H283.923L295.893 244.031H266.57V225.569H266.539ZM276.908 289.723C274.859 289.717 272.857 289.104 271.156 287.961C269.454 286.818 268.13 285.196 267.35 283.301C266.57 281.405 266.369 279.322 266.773 277.312C267.176 275.303 268.166 273.458 269.618 272.011C271.069 270.564 272.917 269.579 274.927 269.182C276.938 268.784 279.021 268.991 280.914 269.777C282.807 270.563 284.425 271.892 285.563 273.596C286.701 275.301 287.308 277.304 287.308 279.354C287.312 280.714 287.048 282.062 286.53 283.32C286.012 284.578 285.251 285.721 284.291 286.684C283.33 287.647 282.189 288.412 280.933 288.933C279.677 289.455 278.33 289.723 276.97 289.723H276.908ZM297.677 260.738H293.462C292.915 260.738 292.391 260.521 292.004 260.135C291.618 259.748 291.4 259.224 291.4 258.677C291.4 258.13 291.618 257.606 292.004 257.219C292.391 256.833 292.915 256.615 293.462 256.615H297.616V260.738H297.677ZM297.616 252.462H293.462C291.83 252.462 290.265 253.11 289.11 254.264C287.956 255.418 287.308 256.983 287.308 258.615C287.308 260.247 287.956 261.813 289.11 262.967C290.265 264.121 291.83 264.769 293.462 264.769H297.616V277.077H291.247C290.741 273.635 289.014 270.49 286.382 268.216C283.749 265.942 280.387 264.691 276.908 264.691C273.429 264.691 270.067 265.942 267.434 268.216C264.802 270.49 263.075 273.635 262.57 277.077H256.231V219.354H279.923L281.154 221.385H264.508C263.958 221.385 263.431 221.601 263.039 221.987C262.648 222.372 262.424 222.897 262.416 223.446V246.215C262.424 246.765 262.648 247.289 263.039 247.675C263.431 248.061 263.958 248.277 264.508 248.277H297.616V252.462Z" fill="#070b22"/>
  <path d="M270.692 252.461H264.538C264.244 252.426 263.946 252.453 263.663 252.541C263.38 252.629 263.119 252.776 262.898 252.972C262.676 253.168 262.498 253.409 262.377 253.679C262.255 253.95 262.192 254.242 262.192 254.538C262.192 254.835 262.255 255.127 262.377 255.397C262.498 255.667 262.676 255.909 262.898 256.105C263.119 256.301 263.38 256.448 263.663 256.536C263.946 256.624 264.244 256.651 264.538 256.615H270.692C270.986 256.651 271.284 256.624 271.567 256.536C271.85 256.448 272.11 256.301 272.332 256.105C272.554 255.909 272.731 255.667 272.853 255.397C272.974 255.127 273.037 254.835 273.037 254.538C273.037 254.242 272.974 253.95 272.853 253.679C272.731 253.409 272.554 253.168 272.332 252.972C272.11 252.776 271.85 252.629 271.567 252.541C271.284 252.453 270.986 252.426 270.692 252.461Z" fill="#070b22"/>
  <path d="M227.246 264.892H243.8C244.094 264.928 244.392 264.901 244.675 264.813C244.958 264.725 245.219 264.578 245.44 264.382C245.662 264.185 245.84 263.944 245.961 263.674C246.083 263.404 246.146 263.111 246.146 262.815C246.146 262.519 246.083 262.226 245.961 261.956C245.84 261.686 245.662 261.445 245.44 261.249C245.219 261.052 244.958 260.905 244.675 260.817C244.392 260.729 244.094 260.702 243.8 260.738H227.246C226.739 260.8 226.272 261.046 225.933 261.428C225.594 261.811 225.407 262.304 225.407 262.815C225.407 263.326 225.594 263.82 225.933 264.202C226.272 264.585 226.739 264.83 227.246 264.892Z" fill="#070b22"/>
  <path d="M243.799 266.954H237.646C237.099 266.954 236.574 267.171 236.188 267.558C235.801 267.944 235.584 268.469 235.584 269.015C235.584 269.562 235.801 270.087 236.188 270.473C236.574 270.86 237.099 271.077 237.646 271.077H243.799C244.346 271.077 244.87 270.86 245.257 270.473C245.644 270.087 245.861 269.562 245.861 269.015C245.861 268.469 245.644 267.944 245.257 267.558C244.87 267.171 244.346 266.954 243.799 266.954Z" fill="#070b22"/>
  <path d="M252.046 276.246H212.846C212.219 272.534 210.158 269.218 207.107 267.013C204.055 264.809 200.26 263.892 196.539 264.462C193.472 264.828 190.61 266.186 188.388 268.331C186.166 270.475 184.706 273.287 184.231 276.339H178.016V256.185H252.046V276.246Z" fill="#f3f5f6"/>
  <path d="M291.062 282.4C290.32 285.921 288.29 289.037 285.369 291.138C286.862 290.145 288.136 288.858 289.115 287.355C290.094 285.853 290.756 284.167 291.062 282.4ZM276.908 277.292C276.361 277.292 275.837 277.509 275.45 277.896C275.063 278.283 274.846 278.807 274.846 279.354C274.846 279.901 275.063 280.425 275.45 280.812C275.837 281.198 276.361 281.415 276.908 281.415C277.454 281.415 277.979 281.198 278.365 280.812C278.752 280.425 278.969 279.901 278.969 279.354C278.969 278.807 278.752 278.283 278.365 277.896C277.979 277.509 277.454 277.292 276.908 277.292ZM276.908 285.569C275.691 285.569 274.501 285.208 273.489 284.532C272.477 283.856 271.688 282.895 271.222 281.77C270.757 280.646 270.635 279.409 270.872 278.215C271.11 277.021 271.696 275.925 272.556 275.064C273.417 274.203 274.513 273.617 275.707 273.38C276.901 273.142 278.138 273.264 279.263 273.73C280.387 274.196 281.348 274.984 282.024 275.996C282.701 277.008 283.062 278.198 283.062 279.415C283.062 281.047 282.413 282.613 281.259 283.767C280.105 284.921 278.54 285.569 276.908 285.569ZM276.908 269.015C274.857 269.021 272.854 269.636 271.152 270.78C269.45 271.924 268.126 273.548 267.347 275.445C266.568 277.342 266.369 279.427 266.775 281.438C267.181 283.448 268.174 285.293 269.628 286.738C271.083 288.184 272.933 289.166 274.946 289.56C276.958 289.955 279.043 289.743 280.935 288.953C282.827 288.162 284.443 286.828 285.577 285.12C286.712 283.411 287.314 281.405 287.308 279.354C287.308 277.996 287.04 276.652 286.521 275.397C286.001 274.143 285.24 273.003 284.28 272.043C283.32 271.083 282.18 270.322 280.926 269.802C279.671 269.283 278.327 269.015 276.969 269.015" fill="#439600"/>
  <path d="M276.908 281.446C276.358 281.438 275.834 281.214 275.448 280.823C275.062 280.431 274.846 279.904 274.846 279.354C274.846 278.807 275.063 278.283 275.45 277.896C275.837 277.51 276.361 277.292 276.908 277.292C277.455 277.292 277.979 277.51 278.365 277.896C278.752 278.283 278.969 278.807 278.969 279.354C278.969 279.904 278.753 280.431 278.367 280.823C277.982 281.214 277.457 281.438 276.908 281.446ZM276.908 273.169C275.691 273.169 274.501 273.53 273.489 274.206C272.477 274.883 271.688 275.844 271.222 276.968C270.757 278.093 270.635 279.33 270.872 280.524C271.11 281.717 271.696 282.814 272.556 283.675C273.417 284.535 274.513 285.121 275.707 285.359C276.901 285.596 278.138 285.474 279.263 285.009C280.387 284.543 281.348 283.754 282.024 282.742C282.701 281.73 283.062 280.54 283.062 279.323C283.062 277.691 282.413 276.126 281.259 274.972C280.105 273.818 278.54 273.169 276.908 273.169Z" fill="#070b22"/>
  <path d="M276.908 289.723C274.858 289.717 272.856 289.104 271.155 287.96C269.454 286.817 268.13 285.196 267.35 283.301C266.57 281.405 266.369 279.321 266.772 277.312C267.176 275.303 268.166 273.458 269.617 272.011C271.068 270.564 272.916 269.579 274.927 269.182C276.937 268.784 279.021 268.991 280.914 269.777C282.807 270.562 284.424 271.892 285.562 273.596C286.7 275.301 287.308 277.304 287.308 279.354C287.312 280.714 287.047 282.062 286.53 283.32C286.012 284.577 285.251 285.721 284.29 286.684C283.33 287.647 282.189 288.412 280.933 288.933C279.676 289.455 278.329 289.723 276.969 289.723H276.908ZM278.292 267.169C274.832 267.169 271.514 268.544 269.067 270.99C266.621 273.437 265.246 276.755 265.246 280.215C265.246 283.675 266.621 286.994 269.067 289.44C271.514 291.887 274.832 293.261 278.292 293.261C280.826 293.252 283.304 292.515 285.431 291.138C288.351 289.037 290.381 285.92 291.123 282.4C291.247 281.678 291.309 280.947 291.308 280.215C291.308 276.76 289.937 273.447 287.497 271.001C285.057 268.555 281.747 267.177 278.292 267.169Z" fill="#070b22"/>
  <path d="M198.293 277.292C197.746 277.292 197.221 277.509 196.835 277.896C196.448 278.283 196.231 278.807 196.231 279.354C196.231 279.901 196.448 280.425 196.835 280.812C197.221 281.198 197.746 281.415 198.293 281.415C198.839 281.415 199.364 281.198 199.75 280.812C200.137 280.425 200.354 279.901 200.354 279.354C200.354 278.807 200.137 278.283 199.75 277.896C199.364 277.509 198.839 277.292 198.293 277.292ZM198.293 285.569C197.075 285.569 195.886 285.208 194.874 284.532C193.862 283.856 193.073 282.895 192.607 281.77C192.141 280.646 192.019 279.409 192.257 278.215C192.494 277.021 193.08 275.925 193.941 275.064C194.802 274.203 195.898 273.617 197.092 273.38C198.286 273.142 199.523 273.264 200.648 273.73C201.772 274.196 202.733 274.984 203.409 275.996C204.085 277.008 204.446 278.198 204.446 279.415C204.446 281.047 203.798 282.613 202.644 283.767C201.49 284.921 199.925 285.569 198.293 285.569ZM198.293 269.015C196.239 269.009 194.23 269.613 192.52 270.75C190.81 271.887 189.476 273.506 188.688 275.402C187.899 277.298 187.691 279.386 188.09 281.4C188.489 283.414 189.478 285.265 190.93 286.717C192.382 288.169 194.232 289.157 196.246 289.556C198.261 289.955 200.348 289.747 202.244 288.959C204.14 288.17 205.759 286.836 206.896 285.126C208.033 283.416 208.637 281.407 208.631 279.354C208.631 276.612 207.542 273.982 205.603 272.043C203.664 270.105 201.034 269.015 198.293 269.015Z" fill="#439600"/>
  <path d="M198.292 281.446C197.742 281.438 197.218 281.214 196.832 280.823C196.446 280.431 196.23 279.904 196.23 279.354C196.23 278.807 196.447 278.283 196.834 277.896C197.22 277.51 197.745 277.292 198.292 277.292C198.838 277.292 199.363 277.51 199.749 277.896C200.136 278.283 200.353 278.807 200.353 279.354C200.353 279.904 200.137 280.431 199.751 280.823C199.365 281.214 198.841 281.438 198.292 281.446ZM198.292 273.169C197.074 273.169 195.885 273.53 194.873 274.206C193.861 274.883 193.072 275.844 192.606 276.968C192.14 278.093 192.018 279.33 192.256 280.524C192.493 281.717 193.079 282.814 193.94 283.675C194.801 284.535 195.897 285.121 197.091 285.359C198.285 285.596 199.522 285.474 200.647 285.009C201.771 284.543 202.732 283.754 203.408 282.742C204.084 281.73 204.445 280.54 204.445 279.323C204.445 277.691 203.797 276.126 202.643 274.972C201.489 273.818 199.924 273.169 198.292 273.169Z" fill="#070b22"/>
  <path d="M198.293 289.723C196.24 289.729 194.233 289.126 192.523 287.99C190.814 286.855 189.48 285.238 188.691 283.343C187.901 281.449 187.691 279.363 188.088 277.35C188.485 275.336 189.47 273.486 190.919 272.033C192.368 270.579 194.215 269.589 196.227 269.186C198.24 268.784 200.326 268.987 202.223 269.771C204.119 270.555 205.741 271.884 206.881 273.59C208.022 275.296 208.631 277.302 208.631 279.354C208.635 280.714 208.371 282.062 207.853 283.32C207.335 284.577 206.574 285.721 205.614 286.684C204.653 287.647 203.512 288.412 202.256 288.933C201 289.455 199.653 289.723 198.293 289.723ZM199.185 265.877C196.605 265.877 194.082 266.642 191.937 268.076C189.791 269.509 188.119 271.547 187.132 273.93C186.144 276.314 185.886 278.938 186.389 281.468C186.893 283.999 188.135 286.324 189.96 288.148C191.784 289.973 194.109 291.215 196.64 291.719C199.17 292.222 201.794 291.964 204.177 290.976C206.561 289.989 208.599 288.317 210.032 286.171C211.466 284.026 212.231 281.503 212.231 278.923C212.231 277.21 211.894 275.513 211.238 273.93C210.582 272.348 209.621 270.909 208.41 269.698C207.198 268.487 205.76 267.526 204.177 266.87C202.595 266.214 200.898 265.877 199.185 265.877Z" fill="#070b22"/>
  <circle cx="236.5" cy="238.5" r="132.5" stroke="#439600" stroke-width="4" stroke-linecap="round" stroke-dasharray="4 24"/>
  <ellipse cx="234" cy="235.5" rx="183" ry="183.5" stroke="#439600" stroke-width="4" stroke-linecap="round" stroke-dasharray="4 24"/>
  <circle cx="236" cy="236" r="234" stroke="#439600" stroke-width="4" stroke-linecap="round" stroke-dasharray="4 24"/>
  <path d="M132.472 339.387C144.841 339.387 156.704 344.301 165.45 353.047C174.196 361.793 179.11 373.656 179.11 386.025C179.11 398.394 174.196 410.257 165.45 419.003C156.704 427.749 144.841 432.663 132.472 432.663C120.103 432.663 108.24 427.749 99.4939 419.003C90.7476 410.257 85.834 398.394 85.834 386.025C85.834 373.656 90.7476 361.793 99.4939 353.047C108.24 344.301 120.103 339.387 132.472 339.387Z" fill="#f3f5f6"/>
  <path d="M179.11 386C179.115 395.225 176.384 404.245 171.262 411.917C166.141 419.59 158.858 425.572 150.337 429.106C141.815 432.64 132.437 433.567 123.389 431.77C114.34 429.973 106.028 425.533 99.5028 419.012C92.9779 412.491 88.5336 404.181 86.732 395.133C84.9304 386.085 85.8525 376.707 89.3817 368.183C92.9109 359.66 98.8886 352.375 106.559 347.249C114.229 342.123 123.247 339.387 132.472 339.387C138.595 339.386 144.658 340.59 150.316 342.932C155.973 345.273 161.114 348.706 165.445 353.035C169.775 357.363 173.211 362.502 175.556 368.158C177.901 373.814 179.108 379.877 179.11 386Z" fill="#ffffff"/>
  <path d="M132.51 384.04C130.664 384.033 128.857 384.573 127.319 385.594C125.78 386.614 124.58 388.068 123.869 389.772C123.158 391.475 122.968 393.352 123.325 395.163C123.681 396.974 124.567 398.639 125.871 399.946C127.175 401.253 128.837 402.143 130.647 402.505C132.457 402.866 134.334 402.682 136.04 401.975C137.745 401.269 139.202 400.072 140.227 398.537C141.251 397.001 141.797 395.196 141.795 393.35C141.795 392.126 141.553 390.915 141.085 389.784C140.616 388.654 139.929 387.627 139.063 386.762C138.197 385.898 137.17 385.212 136.039 384.745C134.908 384.278 133.696 384.038 132.472 384.04" fill="#439600"/>
  <path d="M132.397 370.245V371.187H132.498C133.976 371.206 135.434 371.544 136.769 372.179C139.405 373.497 141.427 375.785 142.411 378.562C142.863 379.718 143.667 381.527 144.383 383.588C144.81 384.844 145.501 386.565 146.104 388.525C146.765 390.557 147.129 392.672 147.185 394.807C147.231 397.179 146.537 399.507 145.2 401.466V401.529L145.539 401.693L145.2 401.529L145.539 401.693L145.2 401.529C144.521 402.726 143.606 403.773 142.511 404.607C139.783 406.701 136.412 407.781 132.975 407.661H132.422C130.637 407.62 128.872 407.267 127.208 406.618C124.005 405.415 121.372 403.051 119.833 399.996C118.765 398.009 118.188 395.795 118.149 393.538C118.151 392.085 118.354 390.639 118.752 389.242C119.557 386.381 120.539 383.574 121.692 380.836C122.658 378.254 124.113 375.882 125.977 373.851C126.543 373.322 127.167 372.859 127.836 372.468C129.087 371.689 130.522 371.256 131.995 371.212H132.422V370.27V369.327H131.995C130.123 369.366 128.298 369.918 126.718 370.923C125.954 371.369 125.245 371.905 124.607 372.519L125.273 373.185L124.632 372.494C122.579 374.692 120.982 377.275 119.933 380.095C118.753 382.918 117.754 385.814 116.943 388.764C116.496 390.316 116.268 391.923 116.265 393.538C116.257 396.118 116.859 398.662 118.024 400.964C119.772 404.434 122.758 407.124 126.391 408.502C128.277 409.233 130.275 409.629 132.297 409.671H132.422V408.728V409.671H132.9C136.795 409.776 140.605 408.514 143.667 406.103C144.949 405.124 146.022 403.898 146.821 402.497L145.979 402.082L146.745 402.622C148.307 400.348 149.12 397.642 149.07 394.883C149.021 392.543 148.627 390.223 147.901 387.998C147.273 385.95 146.557 384.228 146.167 382.972C145.451 380.811 144.584 378.926 144.157 377.858C143.001 374.638 140.647 371.987 137.586 370.458C136.021 369.681 134.307 369.253 132.56 369.202H132.372V370.144V369.202L132.397 370.245Z" fill="#070b22"/>
  <path d="M142.788 393.337H141.795C141.789 395.47 141.045 397.535 139.688 399.18C138.331 400.825 136.446 401.949 134.354 402.361C132.262 402.773 130.091 402.447 128.212 401.439C126.333 400.43 124.862 398.802 124.048 396.831C123.235 394.859 123.13 392.667 123.751 390.627C124.372 388.587 125.681 386.825 127.454 385.642C129.228 384.458 131.358 383.926 133.48 384.135C135.602 384.345 137.586 385.284 139.094 386.792C139.953 387.651 140.633 388.672 141.097 389.795C141.56 390.919 141.798 392.122 141.795 393.337H143.68C143.68 391.136 143.027 388.984 141.804 387.153C140.58 385.322 138.842 383.896 136.808 383.053C134.774 382.21 132.535 381.99 130.376 382.42C128.217 382.849 126.233 383.909 124.676 385.466C123.12 387.023 122.059 389.006 121.63 391.166C121.2 393.325 121.421 395.563 122.263 397.597C123.106 399.631 124.533 401.37 126.363 402.593C128.194 403.816 130.346 404.469 132.548 404.469C135.5 404.469 138.332 403.296 140.419 401.209C142.507 399.121 143.68 396.29 143.68 393.337H142.788Z" fill="#070b22"/>
  <path d="M134.458 374.831C133.361 374.177 132.341 373.401 131.417 372.519C130.675 371.82 130.04 371.016 129.533 370.132C129.031 369.258 128.755 368.274 128.729 367.267C128.74 366.65 128.85 366.039 129.055 365.458C129.496 364.33 130.272 363.364 131.278 362.69C132.285 362.016 133.473 361.667 134.684 361.688H135.136C136.486 361.923 137.709 362.626 138.591 363.674C139.794 364.888 140.49 366.514 140.539 368.222C140.539 369.581 140.098 370.904 139.282 371.991L140.815 373.084C141.86 371.69 142.436 370.001 142.461 368.259C142.417 366.094 141.555 364.024 140.049 362.467C138.85 361.055 137.172 360.134 135.337 359.879H134.759C133.159 359.857 131.591 360.327 130.267 361.226C128.944 362.125 127.928 363.409 127.359 364.905C127.07 365.685 126.925 366.511 126.932 367.342C126.945 368.715 127.322 370.059 128.025 371.237C128.94 372.747 130.134 374.068 131.543 375.132C132.206 375.66 132.908 376.139 133.641 376.564L134.546 374.906L134.458 374.831Z" fill="#070b22"/>
  <path d="M135.626 375.748C135.628 376.196 135.498 376.634 135.251 377.008C135.004 377.381 134.651 377.673 134.238 377.846C133.825 378.019 133.37 378.066 132.931 377.98C132.491 377.894 132.087 377.68 131.769 377.364C131.452 377.048 131.235 376.645 131.147 376.206C131.059 375.767 131.103 375.312 131.273 374.898C131.444 374.484 131.734 374.13 132.106 373.881C132.478 373.632 132.916 373.499 133.364 373.499C133.962 373.499 134.535 373.735 134.959 374.157C135.383 374.578 135.622 375.15 135.626 375.748Z" fill="#070b22"/>
  <path d="M123.502 361.01C123.563 361.131 123.613 361.257 123.652 361.387C123.669 361.494 123.662 361.603 123.632 361.707C123.601 361.811 123.548 361.906 123.475 361.987C123.403 362.068 123.314 362.131 123.214 362.173C123.114 362.215 123.007 362.234 122.898 362.229C122.283 362.229 121.642 362.229 121.052 362.304C118.917 362.532 116.893 363.369 115.222 364.716C112.949 366.491 111.429 369.057 110.963 371.903C110.736 373.183 110.736 374.493 110.963 375.773V376.074C110.988 376.264 110.937 376.456 110.822 376.609C110.707 376.762 110.536 376.863 110.347 376.891C110.253 376.909 110.156 376.908 110.062 376.888C109.968 376.868 109.88 376.829 109.801 376.774C109.723 376.719 109.656 376.649 109.605 376.567C109.554 376.486 109.52 376.395 109.505 376.301C109.43 375.785 109.342 375.283 109.304 374.768C109.079 372.26 109.627 369.743 110.875 367.556C112.028 365.388 113.778 363.596 115.917 362.391C118.057 361.186 120.497 360.62 122.949 360.759C123.081 360.772 123.211 360.797 123.338 360.834L123.502 361.01Z" fill="#070b22"/>
  <path d="M115.963 367.895C116.811 366.958 117.855 366.22 119.022 365.734C120.188 365.247 121.447 365.024 122.71 365.081C122.809 365.077 122.908 365.094 123.001 365.13C123.094 365.166 123.179 365.22 123.25 365.289C123.322 365.358 123.379 365.441 123.417 365.532C123.456 365.624 123.476 365.723 123.476 365.822C123.478 365.923 123.459 366.023 123.42 366.115C123.381 366.208 123.323 366.292 123.249 366.36C123.176 366.429 123.089 366.482 122.994 366.514C122.898 366.547 122.797 366.56 122.697 366.551C121.487 366.517 120.285 366.771 119.192 367.292C117.804 367.979 116.672 369.089 115.958 370.463C115.244 371.836 114.986 373.401 115.222 374.931V375.22C115.248 375.32 115.253 375.425 115.236 375.527C115.219 375.63 115.181 375.727 115.124 375.814C115.067 375.901 114.993 375.975 114.906 376.031C114.819 376.087 114.721 376.124 114.618 376.14C114.516 376.156 114.411 376.15 114.311 376.123C114.211 376.096 114.117 376.048 114.037 375.983C113.956 375.917 113.891 375.836 113.844 375.743C113.797 375.651 113.77 375.55 113.764 375.446C113.603 374.619 113.565 373.772 113.651 372.933C113.875 371.053 114.683 369.291 115.963 367.895Z" fill="#070b22"/>
  <path d="M119.179 370.835C119.607 370.368 120.131 369.999 120.714 369.752C121.297 369.505 121.926 369.386 122.559 369.403C122.693 369.399 122.826 369.431 122.943 369.496C123.06 369.561 123.157 369.657 123.224 369.773C123.291 369.889 123.325 370.021 123.323 370.155C123.321 370.289 123.283 370.42 123.213 370.534C123.142 370.645 123.044 370.737 122.927 370.799C122.81 370.86 122.679 370.89 122.547 370.885C122.12 370.867 121.694 370.942 121.3 371.106C120.906 371.27 120.552 371.518 120.263 371.832C119.975 372.147 119.758 372.521 119.63 372.929C119.501 373.336 119.463 373.766 119.519 374.19V374.454C119.536 374.643 119.479 374.832 119.36 374.98C119.24 375.128 119.067 375.223 118.878 375.245C118.691 375.274 118.501 375.228 118.348 375.118C118.195 375.007 118.092 374.841 118.061 374.655C117.891 373.809 117.988 372.931 118.338 372.142C118.551 371.689 118.84 371.275 119.091 370.885L119.179 370.835Z" fill="#070b22"/>
  <path d="M235.5 84C223.104 84 213 94.2842 213 106.9C213 111.048 214.833 115.54 214.905 115.712C215.508 117.135 216.666 119.369 217.51 120.67L232.944 144.454C233.571 145.435 234.511 146 235.5 146C236.489 146 237.429 145.435 238.056 144.478L253.49 120.67C254.334 119.369 255.492 117.16 256.095 115.712C256.167 115.515 258 111.048 258 106.9C258.024 94.2842 247.92 84 235.5 84Z" fill="#439600"/>
  <ellipse cx="235" cy="106.5" rx="9" ry="8.5" fill="#ffffff"/>
  <path d="M385.472 77.3872C394.697 77.3872 403.715 80.1231 411.385 85.2488C419.055 90.3746 425.033 97.6599 428.562 106.183C432.091 114.707 433.013 124.085 431.212 133.133C429.41 142.181 424.966 150.491 418.441 157.012C411.916 163.533 403.604 167.973 394.555 169.77C385.507 171.567 376.128 170.64 367.607 167.106C359.085 163.572 351.803 157.59 346.682 149.917C341.56 142.245 338.829 133.225 338.834 124C338.841 111.635 343.757 99.7791 352.503 91.0382C361.248 82.2974 373.107 77.3872 385.472 77.3872Z" fill="#f3f5f6"/>
  <path d="M432.11 124C432.115 133.225 429.384 142.245 424.262 149.917C419.141 157.59 411.858 163.572 403.337 167.106C394.815 170.64 385.437 171.567 376.389 169.77C367.34 167.973 359.028 163.533 352.503 157.012C345.978 150.491 341.534 142.181 339.732 133.133C337.93 124.085 338.853 114.707 342.382 106.183C345.911 97.6599 351.889 90.3746 359.559 85.2488C367.229 80.1231 376.247 77.3872 385.472 77.3872C397.837 77.3872 409.695 82.2974 418.441 91.0382C427.187 99.7791 432.103 111.635 432.11 124Z" fill="#ffffff"/>
  <path d="M385.12 113.873C383.276 113.873 381.473 114.42 379.94 115.445C378.406 116.47 377.212 117.927 376.506 119.631C375.801 121.335 375.617 123.211 375.978 125.019C376.339 126.828 377.228 128.489 378.533 129.792C379.838 131.096 381.5 131.983 383.309 132.341C385.119 132.699 386.993 132.513 388.697 131.805C390.4 131.098 391.855 129.901 392.878 128.366C393.901 126.831 394.445 125.028 394.443 123.183C394.443 121.96 394.202 120.748 393.733 119.618C393.264 118.487 392.578 117.46 391.712 116.596C390.846 115.731 389.818 115.046 388.687 114.578C387.556 114.111 386.344 113.872 385.12 113.873Z" fill="#439600"/>
  <path d="M405.801 109.35C405.354 108.882 404.816 108.51 404.219 108.257C403.623 108.004 402.981 107.876 402.333 107.88H395.323V107.792C395.327 107.282 395.229 106.776 395.032 106.306C394.835 105.835 394.545 105.409 394.179 105.053C393.822 104.695 393.397 104.41 392.929 104.216C392.461 104.022 391.96 103.922 391.453 103.923H378.826C378.314 103.918 377.806 104.014 377.332 104.206C376.857 104.398 376.425 104.682 376.061 105.042C375.697 105.401 375.407 105.83 375.209 106.302C375.011 106.774 374.908 107.28 374.906 107.792V107.88H367.971C367.319 107.871 366.672 107.997 366.07 108.25C365.469 108.503 364.927 108.877 364.478 109.35C363.546 110.276 363.014 111.53 362.995 112.843V133.8C362.99 134.453 363.119 135.1 363.374 135.7C363.629 136.301 364.005 136.843 364.478 137.293C365.406 138.22 366.659 138.747 367.971 138.763H402.333C402.985 138.771 403.632 138.644 404.233 138.391C404.834 138.138 405.376 137.764 405.826 137.293C406.753 136.365 407.281 135.111 407.296 133.8V112.843C407.302 112.189 407.173 111.541 406.915 110.94C406.658 110.338 406.279 109.797 405.801 109.35ZM405.085 133.8C405.087 134.162 405.017 134.522 404.879 134.857C404.742 135.192 404.539 135.497 404.284 135.754C404.028 136.011 403.724 136.214 403.389 136.353C403.055 136.493 402.696 136.564 402.333 136.564H367.971C367.609 136.565 367.251 136.495 366.917 136.357C366.582 136.219 366.279 136.016 366.023 135.76C365.769 135.506 365.569 135.204 365.433 134.872C365.297 134.54 365.228 134.184 365.232 133.825V112.843C365.228 112.484 365.297 112.128 365.433 111.796C365.569 111.464 365.769 111.162 366.023 110.908C366.279 110.652 366.582 110.449 366.917 110.311C367.251 110.173 367.609 110.103 367.971 110.104H376.087C376.239 110.103 376.389 110.07 376.528 110.01C376.667 109.949 376.792 109.861 376.897 109.751C377.001 109.641 377.082 109.511 377.135 109.368C377.188 109.226 377.212 109.075 377.205 108.923V107.667C377.199 107.227 377.366 106.803 377.67 106.486C377.826 106.334 378.011 106.215 378.214 106.135C378.417 106.055 378.633 106.016 378.851 106.021H391.415C391.632 106.016 391.848 106.055 392.049 106.136C392.251 106.217 392.433 106.338 392.586 106.492C392.739 106.646 392.859 106.83 392.939 107.032C393.018 107.234 393.056 107.45 393.049 107.667V108.923C393.049 109.073 393.078 109.221 393.136 109.359C393.193 109.497 393.278 109.622 393.384 109.727C393.491 109.832 393.617 109.915 393.755 109.971C393.894 110.027 394.042 110.056 394.192 110.054H402.333C403.059 110.057 403.754 110.347 404.267 110.86C404.78 111.373 405.069 112.067 405.072 112.793L405.085 133.8Z" fill="#070b22"/>
  <path d="M385.133 112.969C383.431 112.97 381.756 113.391 380.256 114.194C378.755 114.998 377.476 116.158 376.531 117.574C375.586 118.989 375.005 120.616 374.839 122.31C374.672 124.004 374.926 125.712 375.578 127.285C376.229 128.857 377.258 130.244 378.574 131.324C379.889 132.404 381.451 133.143 383.12 133.475C384.789 133.807 386.514 133.723 388.143 133.23C389.772 132.736 391.254 131.849 392.458 130.646C393.423 129.687 394.188 128.546 394.708 127.288C395.227 126.031 395.492 124.682 395.486 123.322C395.488 121.962 395.221 120.615 394.701 119.358C394.182 118.101 393.419 116.959 392.457 115.997C391.496 115.036 390.354 114.273 389.097 113.753C387.84 113.234 386.493 112.967 385.133 112.969ZM390.862 129.088C389.338 130.595 387.282 131.439 385.14 131.439C382.997 131.439 380.941 130.595 379.417 129.088C378.662 128.338 378.064 127.445 377.659 126.462C377.253 125.478 377.048 124.423 377.055 123.359C377.067 121.219 377.915 119.168 379.417 117.643C380.165 116.889 381.056 116.292 382.037 115.887C383.019 115.481 384.071 115.275 385.133 115.281C387.278 115.293 389.333 116.14 390.862 117.643C391.612 118.393 392.205 119.285 392.608 120.266C393.012 121.247 393.217 122.298 393.212 123.359C393.229 124.424 393.03 125.48 392.626 126.465C392.222 127.45 391.622 128.343 390.862 129.088Z" fill="#070b22"/>
  <path d="M400.122 112.931C400.53 112.931 400.928 113.052 401.267 113.278C401.606 113.505 401.87 113.827 402.026 114.203C402.182 114.58 402.222 114.994 402.143 115.394C402.063 115.793 401.867 116.16 401.579 116.449C401.291 116.737 400.924 116.933 400.524 117.012C400.124 117.092 399.71 117.051 399.334 116.895C398.957 116.739 398.635 116.475 398.409 116.136C398.182 115.797 398.062 115.399 398.062 114.992C398.062 114.445 398.279 113.921 398.665 113.535C399.051 113.148 399.576 112.931 400.122 112.931Z" fill="#070b22"/>
  <path d="M434.472 327.387C443.697 327.387 452.715 330.123 460.385 335.249C468.055 340.375 474.033 347.66 477.562 356.183C481.091 364.707 482.013 374.085 480.212 383.133C478.41 392.181 473.966 400.491 467.441 407.012C460.916 413.533 452.604 417.973 443.555 419.77C434.507 421.567 425.128 420.64 416.607 417.106C408.085 413.572 400.803 407.59 395.682 399.917C390.56 392.245 387.829 383.225 387.834 374C387.841 361.635 392.757 349.779 401.503 341.038C410.248 332.297 422.107 327.387 434.472 327.387Z" fill="#f3f5f6"/>
  <path d="M481.11 374C481.115 383.225 478.384 392.245 473.262 399.917C468.141 407.59 460.858 413.572 452.337 417.106C443.815 420.64 434.437 421.567 425.389 419.77C416.34 417.973 408.028 413.533 401.503 407.012C394.978 400.491 390.534 392.181 388.732 383.133C386.93 374.085 387.853 364.707 391.382 356.183C394.911 347.66 400.889 340.375 408.559 335.249C416.229 330.123 425.247 327.387 434.472 327.387C446.837 327.387 458.695 332.297 467.441 341.038C476.187 349.779 481.103 361.635 481.11 374Z" fill="#ffffff"/>
  <path d="M441.508 353.86L441.03 360.858L446.169 362.265L451.609 361.976L441.508 353.86Z" fill="#439600"/>
  <path d="M441.684 351.272C441.591 351.175 441.48 351.097 441.357 351.043C441.234 350.989 441.102 350.96 440.968 350.957H424.949C423.523 350.964 422.158 351.532 421.149 352.539C420.14 353.546 419.568 354.91 419.559 356.335V386.564C419.559 387.996 420.126 389.37 421.136 390.384C422.146 391.399 423.517 391.973 424.949 391.979H446.684C448.116 391.973 449.487 391.399 450.497 390.384C451.507 389.37 452.075 387.996 452.074 386.564V362.567C452.066 362.311 451.968 362.067 451.798 361.876L441.684 351.272ZM441.973 354.463L448.745 361.562H444.348C443.72 361.562 443.118 361.313 442.673 360.87C442.228 360.428 441.976 359.827 441.973 359.199V354.463ZM446.684 389.994H424.949C424.047 389.984 423.185 389.618 422.552 388.975C421.919 388.333 421.565 387.466 421.569 386.564V356.335C421.579 355.44 421.937 354.585 422.569 353.951C423.2 353.318 424.054 352.956 424.949 352.943H440.026V359.225C440.026 359.797 440.138 360.363 440.358 360.891C440.577 361.419 440.898 361.899 441.303 362.303C441.708 362.707 442.189 363.027 442.718 363.244C443.247 363.462 443.813 363.573 444.385 363.572H450.077V386.564C450.077 387.467 449.721 388.334 449.086 388.976C448.45 389.618 447.588 389.984 446.684 389.994Z" fill="#070b22"/>
  <path d="M443.983 383.159H427.65C427.387 383.159 427.134 383.264 426.948 383.45C426.762 383.636 426.657 383.889 426.657 384.152C426.657 384.415 426.762 384.668 426.948 384.854C427.134 385.04 427.387 385.144 427.65 385.144H443.983C444.246 385.144 444.499 385.04 444.685 384.854C444.871 384.668 444.976 384.415 444.976 384.152C444.976 383.889 444.871 383.636 444.685 383.45C444.499 383.264 444.246 383.159 443.983 383.159Z" fill="#070b22"/>
  <path d="M435.113 379.604C435.204 379.703 435.315 379.782 435.438 379.836C435.562 379.89 435.695 379.918 435.83 379.918C435.966 379.918 436.101 379.891 436.227 379.837C436.352 379.783 436.465 379.703 436.558 379.604L442.363 373.322C442.546 373.136 442.649 372.885 442.649 372.624C442.649 372.363 442.546 372.113 442.363 371.927C442.272 371.835 442.163 371.761 442.043 371.711C441.924 371.661 441.795 371.636 441.666 371.636C441.536 371.636 441.407 371.661 441.288 371.711C441.168 371.761 441.059 371.835 440.968 371.927L436.872 376.312V365.595C436.872 365.331 436.768 365.079 436.582 364.893C436.395 364.707 436.143 364.602 435.88 364.602C435.617 364.602 435.364 364.707 435.178 364.893C434.992 365.079 434.887 365.331 434.887 365.595V376.412L430.804 372.027C430.713 371.935 430.604 371.862 430.484 371.812C430.365 371.762 430.236 371.736 430.107 371.736C429.977 371.736 429.848 371.762 429.729 371.812C429.609 371.862 429.5 371.935 429.409 372.027C429.226 372.213 429.123 372.464 429.123 372.725C429.123 372.986 429.226 373.236 429.409 373.422L435.113 379.604Z" fill="#070b22"/>
  <path d="M56.9775 36.3872C66.1085 36.3872 75.0345 39.1231 82.6263 44.2488C90.2182 49.3746 96.1349 56.6599 99.628 65.1834C103.121 73.7068 104.034 83.0854 102.251 92.133C100.468 101.181 96.0685 109.491 89.6102 116.012C83.1518 122.533 74.9242 126.973 65.968 128.77C57.0118 130.567 47.7294 129.64 39.2948 126.106C30.8602 122.572 23.6524 116.59 18.5831 108.917C13.5137 101.245 10.8105 92.2252 10.8154 83C10.822 70.6352 15.6884 58.7791 24.3448 50.0382C33.0011 41.2974 44.7389 36.3872 56.9775 36.3872Z" fill="#f3f5f6"/>
  <path d="M103.14 83C103.144 92.2252 100.441 101.245 95.3719 108.917C90.3026 116.59 83.0948 122.572 74.6602 126.106C66.2256 129.64 56.9432 130.567 47.987 128.77C39.0308 126.973 30.8032 122.533 24.3448 116.012C17.8864 109.491 13.4875 101.181 11.7043 92.133C9.92107 83.0854 10.8338 73.7068 14.3269 65.1834C17.8201 56.6599 23.7368 49.3746 31.3287 44.2488C38.9205 39.1231 47.8465 36.3872 56.9775 36.3872C69.2161 36.3872 80.9539 41.2974 89.6102 50.0382C98.2666 58.7791 103.133 70.6352 103.14 83Z" fill="#ffffff"/>
  <path d="M58.0348 76.1651C57.1169 76.1626 56.2188 76.4354 55.4544 76.9488C54.6899 77.4623 54.0935 78.1933 53.7405 79.0494C53.3875 79.9055 53.2938 80.8482 53.4714 81.7581C53.649 82.668 54.0898 83.5042 54.738 84.1609C55.3862 84.8175 56.2127 85.2651 57.1129 85.447C58.013 85.6288 58.9463 85.5367 59.7946 85.1824C60.6429 84.8281 61.3681 84.2274 61.8784 83.4565C62.3886 82.6855 62.661 81.779 62.661 80.8515C62.661 79.6108 62.174 78.4207 61.3068 77.5422C60.4395 76.6637 59.2629 76.1685 58.0348 76.1651Z" fill="#439600"/>
  <path d="M43.5969 95.4761C43.7187 95.6034 43.8646 95.7047 44.0259 95.7738C44.1872 95.8429 44.3606 95.8786 44.5358 95.8786C44.7111 95.8786 44.8845 95.8429 45.0458 95.7738C45.2071 95.7047 45.353 95.6034 45.4748 95.4761L48.2977 92.6241C48.4597 92.4637 48.5781 92.2638 48.6412 92.0437C48.7044 91.8236 48.7103 91.5908 48.6583 91.3677C48.597 91.139 48.4775 90.9306 48.3117 90.763C48.1459 90.5955 47.9396 90.4748 47.7132 90.4128C47.4924 90.3603 47.2619 90.3663 47.0441 90.4301C46.8262 90.4939 46.6284 90.6135 46.4696 90.7772L44.5669 92.5864C42.1707 89.7653 40.7324 86.2426 40.4631 82.5351H43.0746C43.4275 82.5351 43.766 82.3935 44.0155 82.1414C44.2651 81.8893 44.4053 81.5473 44.4053 81.1908C44.4053 80.8342 44.2651 80.4923 44.0155 80.2402C43.766 79.988 43.4275 79.8464 43.0746 79.8464H40.4755C40.7449 76.1389 42.1831 72.6162 44.5794 69.7951L46.4199 71.6923C46.5368 71.839 46.6829 71.9592 46.8488 72.0452C47.0146 72.1312 47.1965 72.181 47.3826 72.1914C47.5687 72.2019 47.755 72.1727 47.9292 72.1057C48.1034 72.0388 48.2618 71.9356 48.3941 71.8029C48.5263 71.6702 48.6295 71.5109 48.6969 71.3353C48.7643 71.1597 48.7944 70.9717 48.7853 70.7836C48.7763 70.5955 48.7282 70.4114 48.6442 70.2433C48.5601 70.0752 48.4421 69.9268 48.2977 69.8077L46.4696 67.9231C49.2575 65.493 52.746 64.0348 56.4183 63.7644V66.3902C56.4183 66.7468 56.5585 67.0887 56.8081 67.3409C57.0576 67.593 57.3961 67.7346 57.749 67.7346C58.1019 67.7346 58.4403 67.593 58.6899 67.3409C58.9394 67.0887 59.0796 66.7468 59.0796 66.3902V63.802C62.752 64.0724 66.2405 65.5307 69.0283 67.9608L67.1257 69.8077C66.9636 69.9681 66.8453 70.168 66.7821 70.3881C66.7189 70.6082 66.7131 70.841 66.765 71.0641C66.8162 71.2976 66.9324 71.5116 67.0998 71.6807C67.2672 71.8499 67.479 71.9672 67.7101 72.019C67.9309 72.0715 68.1614 72.0655 68.3793 72.0017C68.5971 71.9379 68.795 71.8183 68.9537 71.6546L70.7942 69.8077C73.1905 72.6288 74.6288 76.1515 74.8981 79.859H72.3487C71.9958 79.859 71.6574 80.0006 71.4078 80.2527C71.1583 80.5048 71.0181 80.8468 71.0181 81.2033C71.0181 81.5599 71.1583 81.9018 71.4078 82.1539C71.6574 82.406 71.9958 82.5477 72.3487 82.5477H74.9105C74.6412 86.2552 73.2029 89.7779 70.8067 92.599L68.9537 90.7395C68.8337 90.6012 68.6868 90.4894 68.5222 90.4108C68.3576 90.3322 68.1788 90.2885 67.9969 90.2826C67.815 90.2766 67.6337 90.3084 67.4645 90.376C67.2952 90.4436 67.1414 90.5455 67.0127 90.6756C66.884 90.8056 66.783 90.961 66.7161 91.132C66.6492 91.3031 66.6177 91.4862 66.6236 91.67C66.6296 91.8538 66.6728 92.0344 66.7506 92.2007C66.8284 92.367 66.9391 92.5154 67.0759 92.6367L69.9362 95.4761C70.0579 95.6034 70.2038 95.7047 70.3651 95.7738C70.5264 95.8429 70.6999 95.8786 70.8751 95.8786C71.0503 95.8786 71.2237 95.8429 71.385 95.7738C71.5463 95.7047 71.6922 95.6034 71.814 95.4761C74.6033 92.6551 76.5022 89.062 77.2707 85.1508C78.0391 81.2397 77.6426 77.1862 76.1313 73.5027C74.62 69.8192 72.0617 66.671 68.7798 64.4562C65.4979 62.2413 61.6398 61.0591 57.693 61.0591C53.7463 61.0591 49.8881 62.2413 46.6062 64.4562C43.3243 66.671 40.7661 69.8192 39.2547 73.5027C37.7434 77.1862 37.3469 81.2397 38.1154 85.1508C38.8839 89.062 40.7827 92.6551 43.5721 95.4761H43.5969Z" fill="#070b22"/>
  <path d="M63.6057 67.9231C63.2872 67.7725 62.9228 67.7554 62.5919 67.8755C62.261 67.9955 61.9906 68.243 61.8398 68.5639L58.3577 75.9264C58.1436 75.8924 57.9277 75.8715 57.711 75.8636C56.4312 75.8516 55.1891 76.3017 54.2086 77.1328C53.228 77.9639 52.5733 79.1214 52.3625 80.3969C52.1516 81.6723 52.3984 82.9819 53.0584 84.0899C53.7184 85.1978 54.7483 86.0313 55.9625 86.4402C57.1768 86.8491 58.4956 86.8066 59.6816 86.3204C60.8676 85.8341 61.8428 84.936 62.4315 83.7878C63.0203 82.6396 63.184 81.3168 62.8931 80.0575C62.6022 78.7982 61.8759 77.6853 60.8449 76.919L64.2275 69.7197C64.3036 69.5606 64.3479 69.3878 64.3579 69.2113C64.3678 69.0348 64.3432 68.858 64.2855 68.6911C64.2277 68.5242 64.1379 68.3705 64.0213 68.2387C63.9046 68.1069 63.7634 67.9997 63.6057 67.9231ZM57.711 83.9046C57.1847 83.9046 56.6702 83.7469 56.2325 83.4515C55.7949 83.156 55.4538 82.7361 55.2523 82.2448C55.0509 81.7535 54.9982 81.2129 55.1009 80.6914C55.2036 80.1698 55.4571 79.6907 55.8292 79.3147C56.2014 78.9387 56.6756 78.6826 57.1919 78.5788C57.7081 78.4751 58.2432 78.5283 58.7295 78.7318C59.2158 78.9354 59.6314 79.28 59.9238 79.7221C60.2163 80.1643 60.3723 80.6841 60.3723 81.2159C60.3723 81.929 60.0919 82.6129 59.5929 83.1171C59.0938 83.6213 58.4169 83.9046 57.711 83.9046Z" fill="#070b22"/>
</svg>