<?xml version="1.0" encoding="UTF-8"?>
<svg xmlns="http://www.w3.org/2000/svg" width="71" height="60" viewBox="0 0 71 60" fill="none">
  <path d="M13.8104 47.9431C13.141 47.9431 12.4866 48.1416 11.93 48.5135C11.3734 48.8854 10.9396 49.414 10.6834 50.0325C10.4272 50.6509 10.3602 51.3315 10.4908 51.988C10.6214 52.6446 10.9438 53.2477 11.4171 53.721C11.8905 54.1944 12.4935 54.5167 13.1501 54.6473C13.8066 54.7779 14.4872 54.7109 15.1056 54.4547C15.7241 54.1985 16.2527 53.7647 16.6246 53.2081C16.9965 52.6515 17.195 51.9971 17.195 51.3277C17.195 50.4301 16.8384 49.5692 16.2037 48.9344C15.5689 48.2997 14.7081 47.9431 13.8104 47.9431ZM13.8104 52.4954C13.5081 52.491 13.2198 52.3678 13.0076 52.1524C12.7954 51.9371 12.6765 51.6469 12.6766 51.3446C12.6766 51.0439 12.796 50.7555 13.0087 50.5429C13.2213 50.3303 13.5097 50.2108 13.8104 50.2108C14.1111 50.2108 14.3995 50.3303 14.6122 50.5429C14.8248 50.7555 14.9442 51.0439 14.9442 51.3446C14.9443 51.6469 14.8254 51.9371 14.6132 52.1524C14.401 52.3678 14.1127 52.491 13.8104 52.4954Z" fill="#070B22"></path>
  <path d="M57.0497 47.9431C56.3802 47.9431 55.7259 48.1416 55.1693 48.5135C54.6127 48.8854 54.1789 49.414 53.9227 50.0325C53.6665 50.6509 53.5995 51.3315 53.7301 51.988C53.8607 52.6446 54.183 53.2477 54.6564 53.721C55.1297 54.1944 55.7328 54.5167 56.3894 54.6473C57.0459 54.7779 57.7264 54.7109 58.3449 54.4547C58.9634 54.1985 59.492 53.7647 59.8639 53.2081C60.2358 52.6515 60.4343 51.9971 60.4343 51.3277C60.4343 50.4301 60.0777 49.5692 59.4429 48.9344C58.8082 48.2997 57.9473 47.9431 57.0497 47.9431ZM57.0497 52.4954C56.7474 52.491 56.459 52.3678 56.2469 52.1524C56.0347 51.9371 55.9158 51.6469 55.9158 51.3446C55.9158 51.0439 56.0353 50.7555 56.2479 50.5429C56.4605 50.3303 56.7489 50.2108 57.0497 50.2108C57.3504 50.2108 57.6388 50.3303 57.8514 50.5429C58.064 50.7555 58.1835 51.0439 58.1835 51.3446C58.1835 51.6469 58.0646 51.9371 57.8525 52.1524C57.6403 52.3678 57.3519 52.491 57.0497 52.4954Z" fill="#070B22"></path>
  <path d="M70.5204 32.5262L60.3666 16.6016C60.2631 16.4359 60.118 16.3003 59.9458 16.2083C59.7736 16.1162 59.5803 16.0709 59.3851 16.0769H45.6774V9.8154C45.6509 8.77386 45.2184 7.78391 44.4723 7.05674C43.7262 6.32957 42.7254 5.92276 41.6835 5.9231H4.13122C3.09097 5.92286 2.09204 6.33022 1.34861 7.05784C0.605178 7.78545 0.17643 8.77539 0.154297 9.8154V51.3446C0.154264 51.6469 0.273181 51.9371 0.485345 52.1524C0.69751 52.3678 0.985882 52.491 1.28814 52.4954H5.92507C6.20311 54.3884 7.15278 56.1182 8.60064 57.3689C10.0485 58.6196 11.8979 59.3078 13.8112 59.3078C15.7245 59.3078 17.5739 58.6196 19.0218 57.3689C20.4697 56.1182 21.4193 54.3884 21.6974 52.4954H49.2312C49.5093 54.3884 50.4589 56.1182 51.9068 57.3689C53.3547 58.6196 55.2041 59.3078 57.1174 59.3078C59.0306 59.3078 60.8801 58.6196 62.3279 57.3689C63.7758 56.1182 64.7255 54.3884 65.0035 52.4954H69.5389C69.8412 52.491 70.1295 52.3678 70.3417 52.1524C70.5539 51.9371 70.6728 51.6469 70.6728 51.3446V33.1523C70.6706 32.9303 70.6061 32.7133 70.4866 32.5262H70.5204ZM13.8112 57.0477C12.6825 57.0511 11.5783 56.7194 10.6382 56.0948C9.69807 55.4702 8.96446 54.5807 8.53021 53.5389C8.09596 52.4971 7.98061 51.3498 8.19875 50.2424C8.41689 49.135 8.95871 48.1173 9.75562 47.318C10.5525 46.5187 11.5687 45.9738 12.6754 45.7524C13.7822 45.531 14.9298 45.6429 15.9728 46.0741C17.0159 46.5052 17.9076 47.2362 18.535 48.1744C19.1625 49.1126 19.4974 50.2159 19.4974 51.3446C19.4996 52.0928 19.3542 52.834 19.0694 53.5258C18.7846 54.2177 18.3662 54.8465 17.8379 55.3763C17.3097 55.9061 16.6821 56.3264 15.9911 56.6133C15.3001 56.9001 14.5594 57.0477 13.8112 57.0477ZM43.3928 36.5539H2.43891V9.8154C2.43891 9.36657 2.61721 8.93613 2.93458 8.61876C3.25195 8.30139 3.68239 8.12309 4.13122 8.12309H41.6835C42.1324 8.12309 42.5628 8.30139 42.8802 8.61876C43.1975 8.93613 43.3758 9.36657 43.3758 9.8154V36.5539H43.3928ZM51.3466 21.7631H60.9081L67.4912 31.9169H51.3635V21.7631H51.3466ZM57.0497 57.0477C55.9224 57.0444 54.8215 56.707 53.8858 56.0784C52.9502 55.4497 52.2219 54.5578 51.7928 53.5154C51.3637 52.473 51.2532 51.3268 51.4752 50.2217C51.6971 49.1165 52.2416 48.1019 53.0399 47.306C53.8382 46.5101 54.8544 45.9686 55.9602 45.7499C57.066 45.5312 58.2119 45.6452 59.253 46.0773C60.2941 46.5095 61.1838 47.2404 61.8097 48.1779C62.4356 49.1154 62.7697 50.2174 62.7697 51.3446C62.7719 52.0928 62.6265 52.834 62.3417 53.5258C62.057 54.2177 61.6385 54.8465 61.1102 55.3763C60.582 55.9061 59.9544 56.3264 59.2634 56.6133C58.5725 56.9001 57.8317 57.0477 57.0835 57.0477H57.0497ZM68.4728 41.1062H66.1543C65.8536 41.1062 65.5652 40.9867 65.3525 40.7741C65.1399 40.5614 65.0204 40.273 65.0204 39.9723C65.0204 39.6716 65.1399 39.3832 65.3525 39.1706C65.5652 38.9579 65.8536 38.8385 66.1543 38.8385H68.4389V41.1062H68.4728ZM68.4389 36.5539H66.1543C65.2566 36.5539 64.3957 36.9105 63.761 37.5452C63.1263 38.1799 62.7697 39.0408 62.7697 39.9385C62.7697 40.8361 63.1263 41.697 63.761 42.3318C64.3957 42.9665 65.2566 43.3231 66.1543 43.3231H68.4389V50.0923H64.9358C64.6578 48.1994 63.7081 46.4696 62.2603 45.2188C60.8124 43.9681 58.963 43.2799 57.0497 43.2799C55.1364 43.2799 53.287 43.9681 51.8391 45.2188C50.3912 46.4696 49.4416 48.1994 49.1635 50.0923H45.6774V18.3446H58.7081L59.3851 19.4616H50.2297C49.9274 19.4615 49.6372 19.5804 49.4219 19.7926C49.2066 20.0048 49.0834 20.2931 49.0789 20.5954V33.1185C49.0834 33.4207 49.2066 33.7091 49.4219 33.9213C49.6372 34.1334 49.9274 34.2524 50.2297 34.2523H68.4389V36.5539Z" fill="#070B22"></path>
  <path d="M53.6307 36.5539H50.2461C50.0844 36.5342 49.9204 36.549 49.7649 36.5974C49.6094 36.6458 49.4659 36.7266 49.3439 36.8346C49.222 36.9426 49.1244 37.0752 49.0575 37.2238C48.9906 37.3723 48.9561 37.5333 48.9561 37.6962C48.9561 37.8591 48.9906 38.0201 49.0575 38.1686C49.1244 38.3171 49.222 38.4498 49.3439 38.5577C49.4659 38.6657 49.6094 38.7466 49.7649 38.795C49.9204 38.8434 50.0844 38.8582 50.2461 38.8385H53.6307C53.7924 38.8582 53.9564 38.8434 54.112 38.795C54.2675 38.7466 54.411 38.6657 54.5329 38.5577C54.6548 38.4498 54.7525 38.3171 54.8194 38.1686C54.8862 38.0201 54.9208 37.8591 54.9208 37.6962C54.9208 37.5333 54.8862 37.3723 54.8194 37.2238C54.7525 37.0752 54.6548 36.9426 54.5329 36.8346C54.411 36.7266 54.2675 36.6458 54.112 36.5974C53.9564 36.549 53.7924 36.5342 53.6307 36.5539Z" fill="#070B22"></path>
  <path d="M29.7351 43.3907H38.8397C39.0014 43.4105 39.1654 43.3956 39.321 43.3472C39.4765 43.2988 39.62 43.218 39.7419 43.11C39.8638 43.002 39.9615 42.8694 40.0283 42.7209C40.0952 42.5723 40.1298 42.4113 40.1298 42.2484C40.1298 42.0855 40.0952 41.9245 40.0283 41.776C39.9615 41.6275 39.8638 41.4948 39.7419 41.3869C39.62 41.2789 39.4765 41.198 39.321 41.1496C39.1654 41.1012 39.0014 41.0864 38.8397 41.1061H29.7351C29.4561 41.1401 29.1992 41.2751 29.0128 41.4855C28.8265 41.696 28.7236 41.9673 28.7236 42.2484C28.7236 42.5295 28.8265 42.8009 29.0128 43.0113C29.1992 43.2218 29.4561 43.3567 29.7351 43.3907Z" fill="#070B22"></path>
  <path d="M38.8397 44.5247H35.4551C35.1544 44.5247 34.866 44.6441 34.6534 44.8568C34.4407 45.0694 34.3213 45.3578 34.3213 45.6585C34.3213 45.9592 34.4407 46.2476 34.6534 46.4603C34.866 46.6729 35.1544 46.7924 35.4551 46.7924H38.8397C39.1405 46.7924 39.4289 46.6729 39.6415 46.4603C39.8541 46.2476 39.9736 45.9592 39.9736 45.6585C39.9736 45.3578 39.8541 45.0694 39.6415 44.8568C39.4289 44.6441 39.1405 44.5247 38.8397 44.5247Z" fill="#070B22"></path>
  <path d="M43.3751 49.6354H21.8151C21.4702 47.594 20.3363 45.77 18.6582 44.5574C16.9801 43.3447 14.8925 42.8406 12.8459 43.1539C11.1595 43.3552 9.58514 44.1025 8.36299 45.2819C7.14083 46.4613 6.33791 48.008 6.07667 49.6862H2.6582V38.6016H43.3751V49.6354Z" fill="#F3F5F6"></path>
  <path d="M53.0042 1.15076C51.8941 1.15523 50.8309 1.59938 50.0475 2.38597C49.2641 3.17256 48.8242 4.23751 48.8242 5.34768C48.8473 5.9003 48.9676 6.44453 49.1796 6.95537C49.3103 7.27334 49.4689 7.57915 49.6535 7.86922L52.615 12.2184C52.6621 12.3035 52.7306 12.3748 52.8137 12.4252C52.8968 12.4757 52.9916 12.5036 53.0888 12.5061C53.1882 12.5032 53.2853 12.4753 53.371 12.4251C53.4568 12.3748 53.5285 12.3037 53.5796 12.2184L56.4565 7.86922C56.6411 7.57915 56.7996 7.27334 56.9304 6.95537C57.1424 6.44453 57.2627 5.9003 57.2858 5.34768C57.2859 4.78934 57.1746 4.23659 56.9584 3.7218C56.7422 3.20701 56.4255 2.74053 56.0267 2.34968C55.628 1.95884 55.1553 1.65148 54.6363 1.44561C54.1173 1.23974 53.5624 1.1395 53.0042 1.15076ZM56.3888 6.76922C56.2898 7.06439 56.1593 7.34806 55.9996 7.61537L53.1227 11.9646H52.9535L50.0765 7.61537C49.9004 7.35564 49.7529 7.07761 49.6365 6.78614C49.4442 6.33567 49.3352 5.85401 49.315 5.3646C49.2807 4.85798 49.3509 4.34971 49.5212 3.87133C49.6915 3.39296 49.9583 2.95468 50.305 2.5837C50.6517 2.21271 51.071 1.91694 51.5368 1.71472C52.0025 1.5125 52.5049 1.40815 53.0127 1.40815C53.5205 1.40815 54.0228 1.5125 54.4886 1.71472C54.9544 1.91694 55.3737 2.21271 55.7204 2.5837C56.0671 2.95468 56.3339 3.39296 56.5042 3.87133C56.6745 4.34971 56.7447 4.85798 56.7104 5.3646C56.6908 5.84863 56.5818 6.32486 56.3888 6.76922Z" fill="#070B22"></path>
  <path d="M53.0045 1.15079V0.930786C51.836 0.935263 50.7169 1.40259 49.8922 2.23044C49.0675 3.05829 48.6045 4.1792 48.6045 5.34771C48.6272 5.92943 48.7533 6.50246 48.9768 7.04002C49.119 7.36967 49.2888 7.6867 49.4845 7.98771L52.3614 12.3369C52.4292 12.449 52.5248 12.5417 52.639 12.6061C52.7531 12.6704 52.8819 12.7042 53.013 12.7042C53.144 12.7042 53.2728 12.6704 53.3869 12.6061C53.501 12.5417 53.5967 12.449 53.6645 12.3369L56.5414 7.98771C56.7371 7.6867 56.9069 7.36967 57.0491 7.04002L56.846 6.9554L57.0491 7.04002C57.2693 6.50142 57.3952 5.92898 57.4214 5.34771C57.4214 4.17627 56.9561 3.05281 56.1277 2.22447C55.2994 1.39614 54.1759 0.930786 53.0045 0.930786V1.35386C54.0623 1.35832 55.0756 1.78053 55.8236 2.52856C56.5717 3.27659 56.9939 4.28985 56.9983 5.34771C56.9647 5.86981 56.8505 6.38357 56.6599 6.87079C56.529 7.17789 56.3704 7.47244 56.186 7.75079L53.3091 12.1L53.0045 12.2862L52.7168 12.1L49.8399 7.75079C49.6555 7.47244 49.4969 7.17789 49.366 6.87079L49.1799 6.9554H49.366C49.1689 6.4643 49.0545 5.94391 49.0276 5.4154C49.032 4.36045 49.4519 3.34972 50.1962 2.60217C50.9406 1.85462 51.9496 1.43045 53.0045 1.42156V1.15079ZM56.3891 6.76925L56.2029 6.68464C56.0858 6.96178 55.9442 7.22795 55.7799 7.48002L52.9706 11.7446V11.9477L53.1399 11.8292L50.263 7.48002C50.0986 7.22795 49.9571 6.96178 49.8399 6.68464H49.6876H49.8399H49.6876H49.8399C49.6663 6.25852 49.5634 5.80695 49.5353 5.34771C49.5969 4.4629 49.9918 3.6344 50.6404 3.02941C51.289 2.42441 52.1429 2.08797 53.0299 2.08797C53.9168 2.08797 54.7708 2.42441 55.4193 3.02941C56.0679 3.6344 56.4629 4.4629 56.5245 5.34771C56.5082 5.65153 56.4571 5.95247 56.3722 6.24463L56.2706 6.56617V6.65079H56.4229H56.2706H56.4229H56.2706L56.4568 6.7354L56.6599 6.82002V6.66771C56.8345 6.23682 56.9319 5.77853 56.9476 5.31386C56.8822 4.31933 56.441 3.38689 55.7135 2.70564C54.9859 2.02439 54.0266 1.64534 53.0299 1.64534C52.0332 1.64534 51.0738 2.02439 50.3463 2.70564C49.6188 3.38689 49.1776 4.31933 49.1122 5.31386C49.1215 5.65851 49.1785 6.00021 49.2814 6.32925C49.3274 6.49624 49.384 6.66016 49.4506 6.82002L49.6537 6.7354L49.4506 6.82002C49.5793 7.1196 49.7322 7.40824 49.9076 7.6831L52.8522 12.1339H53.2076L56.1522 7.6831C56.3276 7.40824 56.4804 7.1196 56.6091 6.82002L56.406 6.7354L56.6091 6.82002L56.3891 6.76925Z" fill="#070B22"></path>
  <path d="M53.0047 3.13068C52.567 3.13402 52.14 3.26687 51.7777 3.5125C51.4153 3.75812 51.1338 4.10551 50.9686 4.51088C50.8034 4.91626 50.7619 5.36146 50.8494 5.79038C50.9368 6.2193 51.1493 6.61274 51.46 6.92109C51.7707 7.22944 52.1657 7.43891 52.5953 7.52309C53.0249 7.60726 53.4698 7.56239 53.8739 7.39411C54.278 7.22583 54.6232 6.94168 54.8661 6.57748C55.1089 6.21329 55.2385 5.78535 55.2385 5.3476C55.2385 5.05504 55.1807 4.76537 55.0682 4.4953C54.9557 4.22522 54.7909 3.98007 54.5832 3.77399C54.3756 3.5679 54.1292 3.40496 53.8583 3.29455C53.5873 3.18414 53.2972 3.12845 53.0047 3.13068ZM53.0047 7.07376C52.67 7.07376 52.3428 6.9745 52.0645 6.78855C51.7862 6.6026 51.5693 6.3383 51.4412 6.02907C51.3131 5.71984 51.2796 5.37957 51.3449 5.0513C51.4102 4.72302 51.5714 4.42148 51.808 4.18481C52.0447 3.94813 52.3463 3.78696 52.6745 3.72166C53.0028 3.65636 53.3431 3.68987 53.6523 3.81796C53.9615 3.94605 54.2258 4.16295 54.4118 4.44125C54.5978 4.71955 54.697 5.04674 54.697 5.38145C54.697 5.83028 54.5187 6.26072 54.2013 6.57809C53.884 6.89546 53.4535 7.07376 53.0047 7.07376Z" fill="#070B22"></path>
  <path d="M53.0043 3.13077V2.91077C52.5223 2.91077 52.0512 3.05369 51.6504 3.32146C51.2497 3.58924 50.9373 3.96983 50.7529 4.41512C50.5684 4.86041 50.5202 5.35039 50.6142 5.82311C50.7082 6.29583 50.9403 6.73005 51.2811 7.07086C51.622 7.41167 52.0562 7.64376 52.5289 7.73779C53.0016 7.83182 53.4916 7.78356 53.9369 7.59911C54.3822 7.41467 54.7628 7.10232 55.0305 6.70157C55.2983 6.30082 55.4412 5.82967 55.4412 5.34769C55.4412 4.70138 55.1845 4.08154 54.7275 3.62452C54.2705 3.16751 53.6506 2.91077 53.0043 2.91077V3.33384C53.5384 3.33384 54.0506 3.54602 54.4283 3.92369C54.806 4.30136 55.0181 4.81359 55.0181 5.34769C55.0438 5.62652 55.011 5.90764 54.9219 6.17309C54.8328 6.43854 54.6893 6.68248 54.5005 6.88934C54.3118 7.09621 54.0821 7.26144 53.8259 7.3745C53.5697 7.48756 53.2928 7.54595 53.0128 7.54595C52.7328 7.54595 52.4558 7.48756 52.1997 7.3745C51.9435 7.26144 51.7137 7.09621 51.525 6.88934C51.3363 6.68248 51.1928 6.43854 51.1037 6.17309C51.0145 5.90764 50.9817 5.62652 51.0074 5.34769C51.0051 5.08403 51.0552 4.82254 51.1545 4.5783C51.2539 4.33407 51.4006 4.11193 51.5863 3.9247C51.7719 3.73747 51.9928 3.58887 52.2362 3.48746C52.4796 3.38604 52.7406 3.33383 53.0043 3.33384V3.13077ZM53.0043 7.07384V6.85384C52.6302 6.81424 52.284 6.6376 52.0324 6.35795C51.7808 6.0783 51.6416 5.71542 51.6416 5.33923C51.6416 4.96304 51.7808 4.60017 52.0324 4.32051C52.284 4.04086 52.6302 3.86421 53.0043 3.82461C53.2167 3.80214 53.4314 3.82456 53.6345 3.89044C53.8376 3.95631 54.0246 4.06416 54.1833 4.20699C54.3421 4.34981 54.469 4.52442 54.5559 4.71948C54.6428 4.91454 54.6877 5.12569 54.6877 5.33923C54.6877 5.55277 54.6428 5.76392 54.5559 5.95898C54.469 6.15404 54.3421 6.32865 54.1833 6.47147C54.0246 6.6143 53.8376 6.72215 53.6345 6.78802C53.4314 6.8539 53.2167 6.87632 53.0043 6.85384V7.27692C53.3906 7.28027 53.7692 7.16855 54.0918 6.95599C54.4145 6.74344 54.6665 6.43967 54.8159 6.08338C54.9653 5.72708 55.0053 5.33438 54.9307 4.9553C54.8562 4.57621 54.6705 4.22789 54.3973 3.9547C54.1241 3.68151 53.7758 3.49582 53.3967 3.42127C53.0176 3.34671 52.6249 3.38668 52.2686 3.53607C51.9123 3.68546 51.6086 3.93752 51.396 4.26015C51.1834 4.58277 51.0717 4.96136 51.0751 5.34769C51.0751 5.60104 51.125 5.85191 51.2219 6.08597C51.3189 6.32004 51.461 6.53272 51.6401 6.71186C51.8193 6.89101 52.032 7.03311 52.266 7.13007C52.5001 7.22702 52.751 7.27692 53.0043 7.27692V7.07384Z" fill="#070B22"></path>
  <path d="M64.834 53.02C64.4261 54.9563 63.3095 56.6704 61.7033 57.8261C62.5242 57.2797 63.2251 56.5717 63.7634 55.7454C64.3017 54.919 64.666 53.9917 64.834 53.02ZM57.0494 50.2108C56.7487 50.2108 56.4603 50.3302 56.2477 50.5429C56.035 50.7555 55.9156 51.0439 55.9156 51.3446C55.9156 51.6453 56.035 51.9337 56.2477 52.1464C56.4603 52.359 56.7487 52.4784 57.0494 52.4784C57.3501 52.4784 57.6385 52.359 57.8512 52.1464C58.0638 51.9337 58.1833 51.6453 58.1833 51.3446C58.1833 51.0439 58.0638 50.7555 57.8512 50.5429C57.6385 50.3302 57.3501 50.2108 57.0494 50.2108ZM57.0494 54.7631C56.38 54.7631 55.7256 54.5646 55.169 54.1927C54.6124 53.8207 54.1786 53.2921 53.9224 52.6737C53.6663 52.0552 53.5992 51.3747 53.7298 50.7181C53.8604 50.0616 54.1828 49.4585 54.6561 48.9852C55.1295 48.5118 55.7326 48.1895 56.3891 48.0589C57.0457 47.9283 57.7262 47.9953 58.3446 48.2515C58.9631 48.5076 59.4917 48.9415 59.8636 49.4981C60.2355 50.0547 60.434 50.709 60.434 51.3785C60.434 52.2761 60.0774 53.137 59.4427 53.7717C58.808 54.4065 57.9471 54.7631 57.0494 54.7631ZM57.0494 45.6584C55.9215 45.6618 54.8198 45.9996 53.8838 46.629C52.9478 47.2584 52.2195 48.1513 51.7909 49.1947C51.3624 50.2381 51.2529 51.3851 51.4762 52.4907C51.6995 53.5963 52.2457 54.6109 53.0457 55.4061C53.8456 56.2014 54.8634 56.7415 55.9703 56.9583C57.0773 57.175 58.2236 57.0587 59.2644 56.624C60.3053 56.1892 61.1938 55.4556 61.8177 54.5159C62.4415 53.5762 62.7727 52.4726 62.7694 51.3446C62.7694 50.5979 62.6223 49.8585 62.3366 49.1686C62.0508 48.4787 61.632 47.8519 61.104 47.3239C60.576 46.7959 59.9491 46.377 59.2592 46.0913C58.5694 45.8055 57.83 45.6584 57.0833 45.6584" fill="#FA4050"></path>
  <path d="M57.0497 52.4954C56.7474 52.491 56.459 52.3678 56.2469 52.1524C56.0347 51.9371 55.9158 51.6469 55.9158 51.3446C55.9158 51.0439 56.0353 50.7555 56.2479 50.5429C56.4605 50.3303 56.7489 50.2108 57.0497 50.2108C57.3504 50.2108 57.6388 50.3303 57.8514 50.5429C58.064 50.7555 58.1835 51.0439 58.1835 51.3446C58.1835 51.6469 58.0646 51.9371 57.8525 52.1524C57.6403 52.3678 57.3519 52.491 57.0497 52.4954ZM57.0497 47.9431C56.3802 47.9431 55.7259 48.1416 55.1693 48.5135C54.6127 48.8854 54.1789 49.414 53.9227 50.0325C53.6665 50.6509 53.5995 51.3315 53.7301 51.988C53.8607 52.6446 54.183 53.2477 54.6564 53.721C55.1297 54.1944 55.7328 54.5167 56.3894 54.6473C57.0459 54.7779 57.7264 54.7109 58.3449 54.4547C58.9634 54.1985 59.492 53.7647 59.8639 53.2081C60.2358 52.6515 60.4343 51.9971 60.4343 51.3277C60.4343 50.4301 60.0777 49.5692 59.4429 48.9344C58.8082 48.2997 57.9473 47.9431 57.0497 47.9431Z" fill="#070B22"></path>
  <path d="M57.0496 57.0476C55.9224 57.0442 54.8214 56.7069 53.8858 56.0782C52.9501 55.4495 52.2218 54.5577 51.7927 53.5153C51.3637 52.4729 51.2531 51.3267 51.4751 50.2215C51.697 49.1164 52.2415 48.1018 53.0398 47.3059C53.8381 46.51 54.8543 45.9685 55.9601 45.7498C57.0659 45.5311 58.2118 45.645 59.2529 46.0772C60.294 46.5093 61.1837 47.2403 61.8096 48.1778C62.4355 49.1153 62.7696 50.2172 62.7696 51.3445C62.7718 52.0926 62.6264 52.8339 62.3416 53.5257C62.0569 54.2175 61.6384 54.8464 61.1101 55.3762C60.5819 55.906 59.9543 56.3263 59.2634 56.6131C58.5724 56.8999 57.8316 57.0476 57.0834 57.0476H57.0496ZM57.8111 44.6429C55.9081 44.6429 54.083 45.3989 52.7374 46.7446C51.3917 48.0902 50.6357 49.9153 50.6357 51.8183C50.6357 53.7214 51.3917 55.5465 52.7374 56.8921C54.083 58.2378 55.9081 58.9937 57.8111 58.9937C59.2047 58.9885 60.5674 58.5832 61.7373 57.826C63.3435 56.6703 64.4601 54.9562 64.8681 53.0199C64.9361 52.623 64.9701 52.221 64.9696 51.8183C64.9696 49.9182 64.2159 48.0957 62.874 46.7505C61.532 45.4054 59.7112 44.6474 57.8111 44.6429Z" fill="#070B22"></path>
  <path d="M13.8108 50.2108C13.5101 50.2108 13.2217 50.3302 13.009 50.5429C12.7964 50.7555 12.677 51.0439 12.677 51.3446C12.677 51.6453 12.7964 51.9337 13.009 52.1464C13.2217 52.359 13.5101 52.4785 13.8108 52.4785C14.1115 52.4785 14.3999 52.359 14.6126 52.1464C14.8252 51.9337 14.9446 51.6453 14.9446 51.3446C14.9446 51.0439 14.8252 50.7555 14.6126 50.5429C14.3999 50.3302 14.1115 50.2108 13.8108 50.2108ZM13.8108 54.7631C13.1414 54.7631 12.487 54.5646 11.9304 54.1927C11.3738 53.8208 10.94 53.2922 10.6838 52.6737C10.4276 52.0553 10.3606 51.3747 10.4912 50.7182C10.6218 50.0616 10.9442 49.4585 11.4175 48.9852C11.8909 48.5118 12.4939 48.1895 13.1505 48.0589C13.807 47.9283 14.4876 47.9953 15.106 48.2515C15.7245 48.5077 16.2531 48.9415 16.625 49.4981C16.9969 50.0547 17.1954 50.7091 17.1954 51.3785C17.1954 52.2761 16.8388 53.137 16.2041 53.7718C15.5693 54.4065 14.7085 54.7631 13.8108 54.7631ZM13.8108 45.6585C12.6814 45.6551 11.5764 45.9872 10.636 46.6126C9.69553 47.2379 8.96193 48.1285 8.52818 49.1713C8.09443 50.214 7.98007 51.3621 8.19958 52.47C8.4191 53.5779 8.96261 54.5956 9.76122 55.3942C10.5598 56.1928 11.5776 56.7363 12.6854 56.9558C13.7933 57.1754 14.9414 57.061 15.9842 56.6272C17.027 56.1935 17.9175 55.4599 18.5429 54.5194C19.1682 53.579 19.5003 52.474 19.497 51.3446C19.497 49.8366 18.8979 48.3903 17.8315 47.3239C16.7652 46.2576 15.3189 45.6585 13.8108 45.6585Z" fill="#FA4050"></path>
  <path d="M13.8104 52.4954C13.5081 52.491 13.2198 52.3678 13.0076 52.1524C12.7954 51.9371 12.6765 51.6469 12.6766 51.3446C12.6766 51.0439 12.796 50.7555 13.0087 50.5429C13.2213 50.3303 13.5097 50.2108 13.8104 50.2108C14.1111 50.2108 14.3995 50.3303 14.6122 50.5429C14.8248 50.7555 14.9442 51.0439 14.9442 51.3446C14.9443 51.6469 14.8254 51.9371 14.6132 52.1524C14.401 52.3678 14.1127 52.491 13.8104 52.4954ZM13.8104 47.9431C13.141 47.9431 12.4866 48.1416 11.93 48.5135C11.3734 48.8854 10.9396 49.414 10.6834 50.0325C10.4272 50.6509 10.3602 51.3315 10.4908 51.988C10.6214 52.6446 10.9438 53.2477 11.4171 53.721C11.8905 54.1944 12.4935 54.5167 13.1501 54.6473C13.8066 54.7779 14.4872 54.7109 15.1056 54.4547C15.7241 54.1985 16.2527 53.7647 16.6246 53.2081C16.9965 52.6515 17.195 51.9971 17.195 51.3277C17.195 50.4301 16.8384 49.5692 16.2037 48.9344C15.5689 48.2997 14.7081 47.9431 13.8104 47.9431Z" fill="#070B22"></path>
  <path d="M13.8106 57.0476C12.6819 57.051 11.5776 56.7194 10.6375 56.0947C9.69745 55.4701 8.96384 54.5806 8.52959 53.5388C8.09534 52.497 7.97998 51.3498 8.19812 50.2424C8.41626 49.135 8.95809 48.1172 9.755 47.3179C10.5519 46.5186 11.5681 45.9738 12.6748 45.7523C13.7816 45.5309 14.9291 45.6429 15.9722 46.074C17.0153 46.5052 17.907 47.2361 18.5344 48.1743C19.1618 49.1126 19.4967 50.2159 19.4967 51.3446C19.499 52.0927 19.3535 52.8339 19.0688 53.5258C18.784 54.2176 18.3655 54.8464 17.8373 55.3762C17.3091 55.906 16.6815 56.3264 15.9905 56.6132C15.2995 56.9 14.5587 57.0476 13.8106 57.0476ZM14.3014 43.9323C12.8822 43.9323 11.4949 44.3531 10.3149 45.1415C9.13495 45.93 8.21526 47.0506 7.67217 48.3617C7.12908 49.6729 6.98699 51.1156 7.26385 52.5075C7.54072 53.8994 8.22411 55.1779 9.2276 56.1814C10.2311 57.1849 11.5096 57.8683 12.9015 58.1451C14.2934 58.422 15.7361 58.2799 17.0473 57.7368C18.3584 57.1937 19.479 56.2741 20.2675 55.0941C21.0559 53.9141 21.4767 52.5268 21.4767 51.1076C21.4767 50.1654 21.2911 49.2323 20.9305 48.3617C20.57 47.4912 20.0414 46.7002 19.3751 46.0339C18.7088 45.3676 17.9178 44.839 17.0473 44.4784C16.1767 44.1178 15.2436 43.9323 14.3014 43.9323Z" fill="#070B22"></path>
</svg>
